<?xml version="1.0" encoding="utf-8"?>
<!-- Generator: Adobe Illustrator 16.0.0, SVG Export Plug-In . SVG Version: 6.00 Build 0)  -->
<!DOCTYPE svg PUBLIC "-//W3C//DTD SVG 1.1//EN" "http://www.w3.org/Graphics/SVG/1.1/DTD/svg11.dtd">
<svg version="1.1" id="Layer_1" xmlns="http://www.w3.org/2000/svg" xmlns:xlink="http://www.w3.org/1999/xlink" x="0px" y="0px"
	 width="300px" height="200px" viewBox="0 0 300 200" enable-background="new 0 0 300 200" xml:space="preserve">
<path fill-rule="evenodd" clip-rule="evenodd" fill="#272623" d="M7.543,89.156c6.386-7.484,18.958-19.656,37.816-37.317
	c3.592-3.392,8.481-4.69,12.272-4.59c3.892,0.1,151.864,0,185.389,0c9.279,0,10.077,2.994,13.47,5.688
	c3.493,2.694,33.925,33.525,36.221,36.619c2.394,3.093,4.289,8.082,4.289,11.574c0,3.394-1.595,9.58-4.59,12.672
	c-3.69,3.691-28.138,27.74-33.225,32.828c-4.99,4.987-9.181,6.883-14.27,6.883c-4.988,0-181.098,0-185.688,0
	c-4.689,0-8.48,0-13.47-3.791c-6.286-4.889-36.618-33.923-39.712-37.415c-3.092-3.492-4.291-7.783-4.291-11.177
	C1.755,95.342,3.352,94.145,7.543,89.156L7.543,89.156z M14.128,101.129c0,5.288,3.492,6.886,6.287,9.978
	c2.694,3.095,24.944,24.248,30.333,28.937c5.787,4.989,8.281,3.094,18.459,3.492c4.19,0.098,161.64-0.398,166.131-0.398
	c4.59,0,9.578,0.799,15.365-3.893c4.99-3.992,23.848-23.647,27.34-26.742c3.492-3.092,7.782-6.682,7.782-11.373
	c0-3.891-5.288-8.082-7.384-10.477c-2.294-2.595-25.743-26.042-28.836-28.437c-3.093-2.495-8.58-4.39-16.861-4.39
	c-29.335,0-81.819-0.3-165.932-0.3c-3.393,0-11.774,0.798-14.968,3.892C48.751,64.511,27,84.766,21.711,90.253
	C21.711,90.253,14.128,96.739,14.128,101.129L14.128,101.129z"/>
<path fill-rule="evenodd" clip-rule="evenodd" fill="#272623" d="M166.589,83.269c-3.291,0-5.985,2.993-5.985,6.585v23.147
	c0,3.595,2.694,6.588,5.985,6.588c3.294,0,5.887-2.993,5.887-6.588V89.854C172.476,86.262,169.883,83.269,166.589,83.269
	L166.589,83.269L166.589,83.269z M155.414,71.294h22.95c3.392-0.199,6.585,3.094,7.982,6.387c2.493,5.388,2.794,14.069,2.893,23.148
	c0,9.678-0.996,20.952-2.893,24.544c-1.597,3.295-3.692,6.187-7.284,6.187h-24.446c-3.592,0-5.887-2.794-7.683-5.888
	c-1.996-3.591-3.093-15.066-2.894-24.843c0.2-9.18,0-17.262,3.393-23.348C149.229,74.289,151.724,71.294,155.414,71.294
	L155.414,71.294L155.414,71.294z"/>
<path fill="#272623" d="M262.776,104.813c-2.961,0-5.28-2.363-5.28-5.38c0-2.912,2.368-5.281,5.28-5.281
	c2.967,0,5.382,2.369,5.382,5.281C268.158,102.4,265.743,104.813,262.776,104.813z M262.776,95.134c-2.37,0-4.298,1.929-4.298,4.299
	c0,2.466,1.888,4.397,4.298,4.397c2.426,0,4.398-1.972,4.398-4.397C267.175,97.103,265.16,95.134,262.776,95.134z"/>
<path fill-rule="evenodd" clip-rule="evenodd" fill="#272623" d="M260.682,102.427h1.197v-2.195h1.197
	c0.797,0,0.897,0.299,0.897,1.097c0,0.599,0,0.897,0.101,1.098h1.297v-0.099c-0.299-0.102-0.299-0.303-0.299-1.199
	c0-0.999-0.2-1.198-0.7-1.396c0.601-0.2,0.899-0.699,0.899-1.397c0-0.5-0.299-1.596-1.796-1.596h-2.794V102.427L260.682,102.427z
	 M261.879,99.233v-1.497h1.396c0.698,0,0.799,0.399,0.799,0.698c0,0.599-0.299,0.799-0.899,0.799H261.879L261.879,99.233z"/>
<path fill-rule="evenodd" clip-rule="evenodd" fill="#272623" d="M72.2,71.694h-8.581c0,0-7.884,0-11.775,4.391
	c-3.492,3.991-5.388,9.878-1.896,15.267c3.392,5.388,14.069,17.56,14.069,17.56l6.984,7.882c0,0,0.898,1.399,0.498,2.396
	c-0.498,1.398-9.179,0.899-9.179,0.899l-8.281,0.099c0,0-2.196-0.2-3.393,0.5c-2.095,1.297-1.596,5.887-1.596,5.887
	s0.099,4.191,1.397,4.789c1.297,0.5,3.891,0.599,8.88,0.5c6.785-0.103,18.259-0.2,18.259-0.2s7.284-1.199,9.978-5.989
	c1.896-3.591,4.091-9.777-1.098-16.062c-5.088-6.288-19.655-22.651-19.655-22.651s-0.999-1.197-0.6-2.195
	c0.299-0.898,0.399-1.597,1.597-1.597s13.37,0.2,13.37,0.2s1.996,0,3.094-1.198c1.098-1.196,1.098-2.195,1.098-4.29
	c0-2.096,0.399-4.69-1.198-5.688C82.477,71.195,72.2,71.694,72.2,71.694L72.2,71.694L72.2,71.694z"/>
<path fill-rule="evenodd" clip-rule="evenodd" fill="#272623" d="M238.13,71.294h9.879c1.797,0,3.293,1.498,3.293,3.294v53.282
	c0,1.795-1.496,3.194-3.293,3.194h-9.879c-1.796,0-3.191-1.399-3.191-3.194V74.588C234.938,72.792,236.334,71.294,238.13,71.294
	L238.13,71.294L238.13,71.294z"/>
<path fill-rule="evenodd" clip-rule="evenodd" fill="#272623" d="M94.35,99.134l-0.1-1.197c0,0.797-0.199-15.666-0.1-22.65
	c0-1.197,0.199-2.593,1.097-3.093c1.796-1.098,6.386-0.699,6.386-0.699s6.386-0.398,7.684,0.898
	c1.297,1.397,1.297,3.592,1.297,7.384c0,4.49,0.1,7.284,0.1,11.575c0,0.2,0.399,0.798,0.599,0.997c0.2,0.2,0.699,0.3,1.098,0.3
	c1.098,0.1,4.091,0.1,4.091,0.1h4.191c0.199,0,0.797-0.2,0.897-0.3c0.2-0.1,0.798-0.599,0.897-1.197c0-1.397,0-9.18,0-9.18
	s-0.399-7.683,0.599-9.179c0.3-0.499,0.6-0.799,1.297-1.198c1.197-0.598,6.286-0.399,6.286-0.399s6.486-0.298,7.085,1.098
	c0.199,0.3,1.097,1.198,0.998,2.794c0,0.499,0.199,25.045,0.199,25.045c0,0.798,0,1.793-0.1,2.494
	c0.1,13.072,0.699,25.943-0.698,27.539c-1.397,1.598-6.985,1.098-6.985,1.098s-6.485,0.397-7.782-0.998
	c-1.298-1.298-0.998-6.886-0.998-10.775c0-4.491,0-7.186,0-11.574c0-0.2-0.399-0.798-0.599-0.999
	c-0.2-0.099-0.698-0.299-1.198-0.299c-0.998-0.102-3.99,0-3.99,0h-4.191c-0.2,0-1.098-0.102-1.297,0.099
	c-0.1,0.102-0.897,0.601-0.897,1.199c0,1.494-0.101,9.179-0.101,9.179s0,7.783-0.1,9.281c0,0.598,0.4,3.092-0.898,4.188
	c-1.197,1.097-6.686,0.897-6.686,0.897s-6.285,0.499-7.683-1.396c-0.499-0.799-0.599-4.291-0.599-5.888c0.1-0.598,0-25.143,0-25.143
	H94.35L94.35,99.134z"/>
<path fill-rule="evenodd" clip-rule="evenodd" fill="#272623" d="M213.386,83.069c-0.598,0-1.297,0.1-1.496,0.399
	c-0.3,0.499-0.499,0.897-0.499,1.297v6.585c0.1,0,0.1,1.597,0.499,1.896c0.299,0.299,0.698,0.499,0.996,0.499l0.899,0.101h8.281
	c1.796,0,3.293,1.496,3.293,3.292v5.886c0,1.797-1.497,3.292-3.293,3.292h-7.683c-0.897,0.101-1.995,0.2-2.295,0.499
	c-0.398,0.401-0.599,0.9-0.698,1.396v8.781c0,0.4,0.1,1.199,0.399,1.396c0.299,0.303,0.699,0.602,0.998,0.602h0.898h14.865
	c1.798,0,3.294,1.495,3.294,3.292v5.789c0,1.793-1.496,3.291-3.294,3.291h-20.055c-0.1,0-0.299,0-0.398,0h-10.477
	c-1.798,0-3.294-1.396-3.294-3.192V74.289c0-1.796,1.496-3.293,3.294-3.293h10.477c0.299,0,0.497,0.1,0.798,0.1h18.857
	c1.797,0,3.294,1.497,3.294,3.292v5.388c0,1.796-1.497,3.293-3.294,3.293H213.386L213.386,83.069z"/>
</svg>
