<?xml version="1.0" encoding="utf-8"?>
<!-- Generator: Adobe Illustrator 16.0.0, SVG Export Plug-In . SVG Version: 6.00 Build 0)  -->
<!DOCTYPE svg PUBLIC "-//W3C//DTD SVG 1.1//EN" "http://www.w3.org/Graphics/SVG/1.1/DTD/svg11.dtd">
<svg version="1.1" id="Layer_1" xmlns="http://www.w3.org/2000/svg" xmlns:xlink="http://www.w3.org/1999/xlink" x="0px" y="0px"
	 width="300px" height="200px" viewBox="0 0 300 200" enable-background="new 0 0 300 200" xml:space="preserve">
<path fill="#E2000B" d="M154.893,77.863l21.105-36.549l-21.105,8.435V77.863L154.893,77.863z M145.105,77.863V49.749l-21.101-8.435
	L145.105,77.863L145.105,77.863z M186.549,21.279l33.703-13.472l-70.25,121.66L79.747,7.808L113.522,21.3
	c0.994,0.418,2.074,0.648,3.218,0.648c1.506,0,2.915-0.402,4.129-1.113c8.792-5.089,18.978-7.826,29.133-7.826
	c10.228,0,20.518,2.77,29.369,7.955c1.164,0.615,2.49,0.984,3.902,0.984c1.148,0,2.239-0.23,3.241-0.648L186.549,21.279z"/>
<g>
	<path fill="#191A18" d="M100.745,149.655H68.444h-0.101h-1.949c-1.428,0-3.253,1.142-4.054,2.577l-16.024,27.851h5.377l5.496-9.616
		h22.486l-5.459,9.616h13.665l14.825-25.808C104.175,151.708,103.308,149.655,100.745,149.655 M88.71,154.441l-0.27,0.49
		l-0.051,0.109l-6.403,11.324h-22.43l6.491-11.324c0.435-0.736,1.36-1.345,2.089-1.345h20.212c0.261,0,0.45,0.247,0.45,0.474
		L88.71,154.441"/>
	<path fill="#191A18" d="M146.734,180.08l14.165-25.046l0.315-0.615l0.108-0.252c0-0.261-0.225-0.481-0.469-0.481h-0.669h-18.75
		c-0.729,0-1.646,0.616-2.076,1.349l-14.151,25.046h-13.585c0,0-0.013,0.029,12.019-20.938l3.991-6.906
		c0.813-1.447,2.629-2.578,4.049-2.578h1.984h31.583c2.543,0,3.428,2.047,1.966,4.619l-14.862,25.803H146.734z"/>
	<path fill="#191A18" d="M54.398,149.629H17.483L0,180.061l38.944,0.02c1.442,0,3.247-1.175,4.071-2.579L47,170.573l9.384-16.326
		C57.839,151.68,56.961,149.629,54.398,149.629 M50.823,154.415l-0.299,0.501l-0.061,0.1l-3.95,7.041l-7.223,12.544
		c-0.406,0.739-1.344,1.318-2.076,1.318l-1.98,0.03H16.633l11.861-20.992l0.733-1.287h21.205c0.244,0,0.46,0.25,0.46,0.475
		L50.823,154.415"/>
	<path fill="#191A18" d="M196.157,180.08h-33.223c-2.109,0-3.867-2.491-2.547-4.838c1.304-2.344,12.332-21.283,13.258-22.933
		c0.92-1.655,2.69-2.661,4.406-2.661h35.742l-2.321,3.979h-23.167c-1.725,0-2.854,0.592-3.729,2.147l-3.624,6.128l24.264-0.016
		l-2.408,4.114l-24.102-0.046c0,0-3.613,6.104-4.436,7.475c-0.843,1.369,0.067,2.541,1.52,2.541h22.715L196.157,180.08z"/>
	<polygon fill="#191A18" points="123.972,149.645 106.223,180.08 92.908,180.08 110.829,149.645 	"/>
	<path fill="#191A18" d="M232.048,176.009l-14.821-13.078c-1.354-1.252-1.821-3.239-1.821-5.201c0-4.292,3.193-7.675,7.385-8.057
		c0.23-0.018,0.45-0.029,0.672-0.029h32.837l-2.348,3.964l-28.208-0.029l15.397,14.164c0.827,0.959,1.511,2.549,1.511,3.991
		c0,4.622-3.722,8.347-8.336,8.347h-34.472l2.337-4.071H232.048z"/>
	<path fill="#191A18" d="M282.363,180.08h-33.22c-2.116,0-3.868-2.491-2.544-4.838c1.296-2.344,12.331-21.283,13.248-22.933
		c0.924-1.655,2.695-2.661,4.414-2.661H300l-2.327,3.979h-23.17c-1.711,0-2.848,0.592-3.727,2.147l-3.62,6.128l24.271-0.016
		l-2.415,4.114l-24.095-0.046c0,0-3.619,6.104-4.446,7.475c-0.832,1.369,0.078,2.541,1.517,2.541h22.729L282.363,180.08z"/>
</g>
</svg>
