<?xml version="1.0" encoding="utf-8"?>
<!-- Generator: Adobe Illustrator 16.0.0, SVG Export Plug-In . SVG Version: 6.00 Build 0)  -->
<!DOCTYPE svg PUBLIC "-//W3C//DTD SVG 1.1//EN" "http://www.w3.org/Graphics/SVG/1.1/DTD/svg11.dtd">
<svg version="1.1" id="Layer_1" xmlns="http://www.w3.org/2000/svg" xmlns:xlink="http://www.w3.org/1999/xlink" x="0px" y="0px"
	 width="300px" height="200px" viewBox="0 0 300 200" enable-background="new 0 0 300 200" xml:space="preserve">
<path fill="#11479F" d="M69.361,103.393c-0.44,0.011-20.227,1.031-20.227,1.031c-0.443,0.027-1.042-0.232-1.324-0.559l-3.034-3.528
	c-0.293-0.334-0.393-0.939-0.241-1.348c0,0,1.637-4.263,2.812-6.885c1.562-3.475,3.226-6.653,4.743-9.345
	c3.061-5.436,5.082-8.246,5.082-8.246c0.256-0.355,0.118-0.547-0.306-0.441c0,0-4.345,1.199-11.296,4.758
	c-5.345,2.74-11.764,6.755-17.761,12.38c-13.793,12.946-20.535,29.351-20.535,29.351c-0.173,0.39,0.027,0.596,0.402,0.383
	c0,0,3.967-2.339,7.001-3.899c2.65-1.376,6.811-3.329,6.811-3.329c0.404-0.182,0.923-0.646,1.149-1.005
	c0,0,4.117-6.703,7.187-10.628c2.109-2.696,4.468-5.394,7.087-7.941l0.25-0.236c0.028-0.029,0.059-0.059,0.089-0.089v0.004
	c3.559-3.418,7.271-6.257,10.814-8.585c0.422-0.267,0.524-0.088,0.117,0.216c-0.012,0.005-0.018,0.018-0.02,0.019
	c-3.069,2.281-6.211,4.95-9.229,8.067c-0.545,0.574-1.085,1.157-1.62,1.733c-0.75,0.835-1.251,1.933-1.604,2.827
	c-1.361,3.481-2.532,6.82-2.532,6.82c-0.141,0.415-0.029,1.027,0.262,1.355l5.199,6.032c0.288,0.328,0.834,0.464,1.21,0.291
	l0.418-0.2c2.329-1.029,6.138-2.584,11.267-4.218c0.613-0.184,1.248-0.384,1.901-0.586c6.754-2.025,12.847-3.261,15.983-3.844
	C69.876,103.639,69.8,103.366,69.361,103.393 M73.489,77.442c0,17.713-3.122,36.001-7.889,54.693l0,0
	c-0.146,0.652-1.001,1.382-1.776,1.465c-9.025,1.002-18.05,1.523-27.076,1.523c-5.28,0-10.558-0.173-15.835-0.527
	c-0.29-0.089-0.218-0.262-0.009-0.471c15.933-13.738,33.148-20.268,45.732-23.663c0,0-0.002,0,0,0
	c0.083-0.028,0.146-0.065,0.134-0.095c-0.004-0.052-0.076-0.058-0.151-0.05c-14.68,3.27-34.001,9.715-52.01,23.607
	c-0.183,0.122-0.286,0.143-0.504,0.12c-1.479-0.126-2.965-0.293-4.442-0.445c-0.781-0.083-1.636-0.812-1.772-1.465
	c-4.767-18.692-7.89-36.98-7.89-54.692c0-2.901,0.084-5.777,0.259-8.647c0.024-0.571,0.721-1.273,1.509-1.375
	c11.66-1.698,23.317-2.544,34.979-2.544c4.131,0,8.265,0.112,12.396,0.319c0.659,0.069,0.951,0.188,0.042,0.626
	c-6.884,3.037-13.849,6.903-19.726,11.738C18.717,86.404,12.52,95.676,6.845,105.478c-0.042,0.083-0.064,0.145-0.028,0.172
	c0.036,0.01,0.091-0.029,0.14-0.109c3.09-4.712,11.015-16.177,20.041-23.604c8.951-7.366,20.435-12.48,30.285-15.833l-0.003,0.001
	c0.509-0.163,1.025-0.25,1.565-0.207c4.292,0.396,8.583,0.894,12.876,1.522c0.79,0.102,1.482,0.804,1.509,1.378
	C73.403,71.667,73.489,74.542,73.489,77.442"/>
<path fill="#005BA9" d="M284.534,116.758l-0.004-0.002h-2.462v1.141h0.832v0.004h1.634c0.757,0.083,0.698,0.143,0.764,0.668v7.007
	h1.144v-7.025c0.083-0.503,0.029-0.566,0.761-0.649h1.23v-0.004h1.284v-1.139h-1.284H284.534z M272.557,117.136
	c-0.354,0.381-0.358,0.8-0.361,1.286c-0.001,0.627-0.001,3.724,0,5.484c-0.001,0.464,0.118,0.935,0.475,1.291
	c0.347,0.355,0.852,0.502,1.411,0.502h0.026h5.118v-1.122h-5.118c-0.763-0.085-0.704-0.145-0.771-0.671v-2.202h5.665v-1.141h-5.665
	v-2.142c0-0.223,0.003-0.351,0.013-0.433c0.023-0.058,0.025-0.062,0.025-0.062l0.024,0.004c0.06-0.029,0.213-0.035,0.444-0.035
	h5.382v-1.141h-5.382C273.375,116.758,272.939,116.764,272.557,117.136 M298.684,121.235c-0.73-0.345-1.584-0.46-2.493-0.644
	c-0.9-0.195-1.604-0.437-2.016-0.699c-0.435-0.268-0.509-0.466-0.509-0.618c0.125-0.757-0.164-1.487,2.388-1.604
	c2.55,0.082,2.517,1.104,2.603,1.69h1.142c0-0.492-0.116-1.202-0.7-1.814s-1.556-1.02-3.044-1.02c-1.466,0-2.381,0.352-2.934,0.962
	c-0.54,0.594-0.59,1.319-0.59,1.786c0.095,1.438,1.528,1.998,3.425,2.434c0.942,0.202,1.765,0.323,2.256,0.557
	c0.469,0.26,0.617,0.382,0.649,1.059c-0.001,1.198-0.99,1.466-2.675,1.518c-1.606-0.056-2.778-0.499-2.802-2.17h-1.144
	c-0.004,1.18,0.525,2.11,1.309,2.617c0.768,0.524,1.708,0.695,2.637,0.695c0.887,0,1.769-0.087,2.52-0.47
	c0.743-0.374,1.316-1.168,1.295-2.19C300.029,122.296,299.422,121.534,298.684,121.235 M266.605,117.077
	c-0.004,0.005-2.402,5.567-2.698,6.132c-0.234,0.467-0.411,0.879-0.561,1.137c-0.194,0.269-0.23,0.258-0.23,0.258
	c-0.004,0-0.058,0.006-0.23-0.26c-0.154-0.237-0.328-0.668-0.56-1.135c-0.315-0.564-2.699-6.129-2.699-6.129l-0.147-0.352h-1.639
	l0.002,8.766h1.143l-0.002-7.035c0.68,1.611,2.055,4.75,2.317,5.276c0.465,0.761,0.583,1.846,1.815,2.011
	c1.232-0.165,1.351-1.25,1.796-1.992c0.262-0.526,1.634-3.684,2.336-5.273l-0.002,7.014l1.14,0.02l0.003-8.785h-1.641
	L266.605,117.077z M233.816,116.898h-1.141v2.584c-0.08,0.885-0.285,0.85-0.85,0.935h-3.927c-0.437-0.002-0.821,0.06-1.168,0.184
	v-3.7h-1.143v8.613h1.143v-2.725c0.143-1.143-0.056-1.11,1.168-1.231h3.927c0.269,0,0.561-0.054,0.85-0.167v4.104h1.141v-6.006
	v-0.006V116.898z M238.064,117.112c-0.352,0.404-0.373,0.821-0.379,1.31v5.484c0,0.445,0.122,0.935,0.476,1.291
	c0.353,0.353,0.87,0.502,1.429,0.502h5.131v-1.122c0,0-4.134-0.002-5.103,0c-0.764-0.085-0.706-0.145-0.789-0.671v-2.202h5.679
	v-1.141h-5.679v-2.142c0-0.223,0.005-0.351,0.031-0.433c0.004-0.058,0.024-0.062,0.022-0.064l0.009,0.007
	c0.059-0.025,0.23-0.035,0.463-0.035h5.366v-1.141h-5.366C238.883,116.758,238.448,116.764,238.064,117.112 M249.313,123.906V116.9
	h-1.143v7.006c-0.02,0.464,0.122,0.935,0.472,1.291c0.354,0.355,0.876,0.522,1.443,0.502c0.984,0,4.566,0,4.568,0.021v-1.145h-4.568
	C249.323,124.492,249.38,124.433,249.313,123.906"/>
<path fill="#11479F" d="M124.016,86.233c-2.153-2.407-5.688-4.058-9.741-4.282l-0.118-0.012v-0.028h-0.734l-0.146-0.003
	l-0.148,0.003l-2.34-0.063l-15.193-0.041l-0.158-0.003l-0.147,0.003h-0.736v0.027l-0.114,0.014c-4.059,0.234-7.591,1.865-9.742,4.28
	c-0.716,0.804-1.277,1.687-1.668,2.634c-0.322,0.795-0.499,1.641-0.542,2.509v0.76c0.042,0.875,0.22,1.713,0.542,2.507
	c0.391,0.952,0.949,1.84,1.668,2.635c2.17,2.443,5.758,4.086,9.856,4.294v0.025h0.695l0.188,0.004l0.189-0.004h5.255h9.509
	c0.5,0,0.983,0.087,1.42,0.229c1.174,0.412,1.993,1.297,1.993,2.345c0,1.417-1.551,2.588-3.459,2.588h-3.222h-0.031h-8.714
	c-1.418,0-2.624-0.62-3.165-1.532l-0.011-0.002l-0.004-0.024l-0.104-0.204c-0.304-0.502-0.86-0.825-1.49-0.825H82.487v1.091
	c0.076,0.707,0.247,1.4,0.512,2.048c0.382,0.966,0.953,1.871,1.683,2.669c2.18,2.432,5.762,4.073,9.871,4.278v0.022h0.014h-0.01
	h0.22c0.216,0.002,0.422,0.008,0.642,0.008c0.208,0,0.416-0.006,0.631-0.008h16.583c0.233,0.002,0.439,0.008,0.673,0.008
	c0.22,0,0.438-0.006,0.66-0.008h0.192v-0.021c4.114-0.207,7.692-1.849,9.886-4.28c0.72-0.798,1.287-1.703,1.669-2.667
	c0.277-0.647,0.438-1.343,0.514-2.05v-1.644c-0.075-0.697-0.236-1.376-0.498-2.021c-0.383-0.968-0.954-1.875-1.685-2.691
	c-2.107-2.333-5.492-3.956-9.389-4.263c-0.163-0.003-6.799,0-6.799,0s-5.904-0.044-8.669-0.046
	c-1.731-0.146-3.088-1.243-3.088-2.578c0-1.436,1.551-2.596,3.469-2.596l-0.267-0.011h7.868l2.253,0.113l-0.274,0.003
	c1.525,0,2.812,0.733,3.282,1.76c0.261,0.625,0.879,1.054,1.61,1.054h12.174l0.014-0.102l0.001-0.75
	c-0.043-0.877-0.223-1.725-0.544-2.519C125.304,87.928,124.73,87.036,124.016,86.233 M94.553,114.176h0.004H94.553z M265.787,94.872
	l0.401-0.308l0.178-0.171c2.054-1.802,3.347-4.398,3.347-7.324v-5.245V81.82h-1.556h-10.494v0.003v12.74v2.168v4.764l5.367-4.379
	L265.787,94.872z M299.354,114.182l-19.832-16.188l19.813-16.17l0.019-0.003h-15.41l-0.001,0.003l-0.203,0.162L269.713,93.42
	l-1.383,1.143l-4.22,3.43l-4.22,3.441l-1.632,1.348l-0.596,0.493v10.906h12.05v-8.677c0.023,0.145,0.031,0.206,0.062,0.124
	c0.173-0.438,0.516-0.797,0.986-0.999c0.533-0.208,1.121-0.171,1.592,0.112h0.019l11.571,9.439H299.354z M237.744,96.135h-8.518
	h-3.637v-7.357h3.49h8.664c2.671,0,4.842,1.644,4.842,3.679C242.586,94.492,240.415,96.135,237.744,96.135 M185.27,100.822
	l4.896-7.986l4.89,7.986H185.27z M246.269,102.281l0.386-0.111c4.064-1.085,7.238-3.559,8.559-6.668
	c0.434-1.009,0.668-2.081,0.668-3.205c0-3.281-1.989-6.2-5.096-8.129c-1.23-0.75-2.635-1.348-4.16-1.748
	c-1.408-0.376-2.899-0.596-4.479-0.596h-0.148H225.59h-12.067v6.955V111.6l-17.432-28.458l-0.799-1.319h-10.345l-0.782,1.245
	l-16.963,27.71V81.823H155.15v11c0,0.955-0.809,1.74-1.78,1.74h-13.403v-12.74h-12.058v32.358h12.058v-10.936
	c0-0.957,0.792-1.727,1.771-1.727h13.413v12.662h9.968h2.084h9.875l3.396-5.542c0.319-0.495,0.874-0.822,1.496-0.852h16.373
	c0.641,0.029,1.195,0.356,1.498,0.852l3.396,5.542h10.286h1.581h3.339h7.147v-11.399h3.363c2.845,0.15,5.37,1.463,7.1,3.459
	l0.262,0.323l6.173,7.617h13.396l-9.229-11.422L246.269,102.281z"/>
</svg>
