<?xml version="1.0" encoding="utf-8"?>
<!-- Generator: Adobe Illustrator 16.0.0, SVG Export Plug-In . SVG Version: 6.00 Build 0)  -->
<!DOCTYPE svg PUBLIC "-//W3C//DTD SVG 1.1//EN" "http://www.w3.org/Graphics/SVG/1.1/DTD/svg11.dtd">
<svg version="1.1" id="Layer_1" xmlns="http://www.w3.org/2000/svg" xmlns:xlink="http://www.w3.org/1999/xlink" x="0px" y="0px"
	 width="300px" height="200px" viewBox="0 0 300 200" enable-background="new 0 0 300 200" xml:space="preserve">
<path fill="#B2B2B1" d="M287.328,76.573C259.117,48.973,187.32,31.334,150.287,31.317h-0.575
	C112.681,31.335,40.886,48.973,12.673,76.574C4.496,84.575-0.003,93.833,0,102.646c0.01,21.454,20.721,43.189,55.399,58.137
	c15.781,6.803,20.68,7.762,40.347,7.901c0,0,108.509,0,108.534,0c19.644-0.14,24.543-1.099,40.324-7.902
	c34.676-14.946,55.385-36.683,55.396-58.137C300.004,93.833,295.503,84.573,287.328,76.573"/>
<path d="M278.48,85.22c-25.977-25.413-93.275-41.654-128.191-41.669l-0.565-0.001C114.807,43.567,47.51,59.808,21.534,85.221
	c-5.813,5.688-9.015,11.874-9.012,17.419c0.01,16.219,18.376,34.209,47.934,46.95c8.083,3.484,12.628,5.185,18.375,6.028
	c-5.566-2.562-8.701-6.914-8.701-11.473c-0.009-16.016,35.933-19.31,79.878-19.335c43.945,0.025,79.886,3.317,79.878,19.335
	c-0.004,4.559-3.138,8.911-8.702,11.473c5.748-0.846,10.291-2.544,18.375-6.029c29.559-12.742,47.924-30.732,47.934-46.95
	C287.494,97.093,284.294,90.908,278.48,85.22"/>
<path d="M295.83,102.643c-0.007,19.791-19.787,40.131-52.91,54.409c-15.245,6.572-19.578,7.419-38.669,7.555H95.754
	c-19.089-0.136-23.422-0.982-38.669-7.553c-33.121-14.278-52.901-34.618-52.91-54.41C4.17,94.921,8.239,86.686,15.625,79.457
	c27.469-26.87,97.763-44.045,134.089-44.062h0.575c36.326,0.017,106.623,17.191,134.089,44.062
	C291.768,86.685,295.834,94.92,295.83,102.643 M281.428,82.339c-26.723-26.144-95.582-42.85-131.141-42.867h-0.57
	C114.158,39.489,45.3,56.197,18.579,82.34c-6.691,6.545-10.235,13.771-10.232,20.302c0.01,17.895,18.949,37.113,50.422,50.681
	c14.833,6.394,18.696,7.076,36.986,7.206h108.497c18.292-0.131,22.153-0.813,36.987-7.208c31.472-13.567,50.412-32.784,50.42-50.68
	C291.662,96.111,288.119,88.884,281.428,82.339"/>
<path fill="#FFFFFF" d="M266.954,129.458l-7.373-1.735c-2.059-5.706-7.073-16.967-10.269-26.067
	c-2.059-5.869-12.931-5.287-10.188,2.048c2.941,7.871,8.052,20.899,8.052,20.899l-19.77-3.817L203.191,58.89l17.978-0.153
	l11.623,28.181c1.325-1.646,6.152-4.974,10.154-5.315c6.354-0.546,11.742,3.701,14.784,7.393c3.212,3.895,6.629,11.714,7.825,14.81
	l7.374,20.371L266.954,129.458z M71.195,120.817c1.278-6.549,4.502-20.307,4.502-20.307l-15.715,0.622
	c-2.492,1.986-15.171,24.323-15.99,26.293c-1.285,0.529-9.361,3.059-9.361,3.059s-6.133-4.798-8.92-8.175
	C36.57,101.948,58.242,74.667,79.342,58.96l23.415-0.037c-5.172,20.314-10.507,41.12-14.632,59.844L71.195,120.817z M66.593,92.251
	l11.534-0.588c1.129-4.588,3.717-14.743,4.193-17.526C75.351,80.243,70.059,86.991,66.593,92.251 M118.157,116.826l-17.269,0.473
	l9.276-36.042l18.13-1.136L118.157,116.826z M162.647,96.007c-2.844,0.023-8.18,3.835-9.007,4.824
	c-0.831,0.991-3.159,4.105-3.954,6.898c-0.909,3.198-2.578,8.771-2.578,8.771l-14.301,0.351l8.548-37.331l14.934-0.291l-1.342,7.858
	c3.215-4.113,9.053-5.962,13.404-5.834C167.376,84.366,162.647,96.007,162.647,96.007z M190.599,119.421
	c-11.204,0.096-20.368-8.707-20.464-19.66c-0.099-10.95,8.907-19.907,20.111-20.001c11.207-0.096,20.369,8.706,20.467,19.659
	C210.809,110.37,201.806,119.324,190.599,119.421 M190.369,93.475c-3.456,0.029-6.233,2.791-6.203,6.167
	c0.03,3.379,2.854,6.095,6.31,6.064c3.456-0.028,6.236-2.791,6.206-6.169C196.652,96.16,193.825,93.445,190.369,93.475"/>
<path fill="#FFFFFF" d="M113.638,72.236c9.007-8.943,19.849-15.779,33.671-21.073c1.49-0.625,4.151-0.635,5.734,0.011
	c9.729,4.112,23.465,11.049,33.343,20.88l4.793,4.951l-6.948-0.582c-24.262-2.034-42.812-1.98-68.442,0.19l-7.008,0.594
	L113.638,72.236z"/>
<path fill="#E30327" d="M152.025,53.57c-1.371-0.597-2.533-0.52-3.747,0.011c-13.701,5.235-24.402,11.939-32.718,20.45
	c25.679-2.177,44.585-2.229,68.899-0.191C175.185,64.263,161.77,57.543,152.025,53.57"/>
<path d="M104.8,147.585v-10.781h3.542v3.66h3.3v-3.66h3.544v10.781h-3.544v-4.181h-3.3v4.181H104.8z M121.722,147.585v-10.781h8.816
	v2.582h-5.272v1.438h4.456v2.471h-4.456v1.666h5.489v2.624H121.722z M136.865,147.585v-10.781h3.542v7.918h4.816v2.863H136.865z
	 M154.326,147.585h-3.205v-10.781h4.313l1.526,5.378c0.022,0.074,0.062,0.239,0.12,0.502c0.059,0.261,0.146,0.619,0.257,1.079
	c0.067-0.36,0.134-0.677,0.194-0.947c0.059-0.27,0.112-0.474,0.158-0.611l1.562-5.4h4.308v10.781h-3.204l0.03-5.307
	c0-0.324,0-0.635,0-0.94c0.002-0.306,0.008-0.623,0.014-0.95c-0.12,0.557-0.266,1.165-0.433,1.824l-0.024,0.096l-1.363,5.277h-2.471
	l-1.378-5.161c-0.062-0.234-0.131-0.501-0.195-0.805c-0.063-0.304-0.15-0.713-0.256-1.231c0.015,0.466,0.03,0.862,0.038,1.195
	c0.005,0.331,0.009,0.595,0.009,0.795V147.585z M170.097,147.585v-10.781h8.813v2.582h-5.271v1.438h4.456v2.471h-4.456v1.666h5.489
	v2.624H170.097z M187.56,147.585v-7.941h-3.176v-2.84h9.827v2.84h-3.109v7.941H187.56z"/>
<path fill="#FFFFFF" d="M239.037,131.443c0.685,0,1.336,0.166,1.964,0.501c0.626,0.331,1.121,0.811,1.479,1.434
	c0.358,0.622,0.537,1.275,0.537,1.956c0.002,0.679-0.175,1.325-0.525,1.938c-0.354,0.614-0.843,1.093-1.475,1.438
	c-0.627,0.342-1.288,0.514-1.979,0.514c-0.693,0-1.355-0.172-1.982-0.514c-0.63-0.346-1.119-0.824-1.472-1.438
	c-0.351-0.612-0.525-1.259-0.525-1.938c0-0.681,0.179-1.334,0.534-1.956c0.36-0.623,0.852-1.103,1.479-1.434
	C237.7,131.609,238.353,131.443,239.037,131.443 M239.043,132.206c-0.549,0-1.075,0.133-1.577,0.399
	c-0.499,0.268-0.897,0.652-1.186,1.153c-0.29,0.503-0.434,1.027-0.434,1.575c0,0.544,0.142,1.067,0.422,1.561
	c0.283,0.493,0.677,0.881,1.182,1.156c0.507,0.279,1.039,0.417,1.593,0.417c0.558,0,1.087-0.138,1.592-0.417
	c0.503-0.275,0.897-0.663,1.182-1.156c0.282-0.493,0.425-1.017,0.425-1.561c0-0.548-0.145-1.072-0.433-1.575
	c-0.288-0.501-0.684-0.886-1.188-1.153C240.114,132.339,239.589,132.206,239.043,132.206 M237.237,137.416v-4.128h0.859
	c0.805,0,1.253,0.004,1.35,0.009c0.284,0.024,0.507,0.079,0.662,0.166c0.159,0.087,0.288,0.216,0.395,0.394
	c0.107,0.179,0.16,0.377,0.16,0.594c0,0.297-0.098,0.55-0.299,0.763c-0.201,0.215-0.479,0.343-0.842,0.396
	c0.131,0.047,0.229,0.098,0.298,0.153c0.07,0.055,0.165,0.162,0.284,0.317c0.032,0.04,0.137,0.207,0.315,0.503l0.498,0.833h-1.06
	l-0.354-0.668c-0.239-0.453-0.437-0.735-0.594-0.853c-0.154-0.116-0.353-0.175-0.594-0.175h-0.22v1.695H237.237z M238.097,135.07
	h0.349c0.493,0,0.801-0.019,0.922-0.056c0.118-0.039,0.212-0.104,0.28-0.195c0.074-0.094,0.105-0.202,0.105-0.318
	c0-0.117-0.031-0.219-0.1-0.307c-0.068-0.09-0.166-0.155-0.29-0.195c-0.125-0.037-0.433-0.058-0.918-0.058h-0.349V135.07z"/>
</svg>
