<?xml version="1.0" encoding="utf-8"?>
<!-- Generator: Adobe Illustrator 16.0.0, SVG Export Plug-In . SVG Version: 6.00 Build 0)  -->
<!DOCTYPE svg PUBLIC "-//W3C//DTD SVG 1.1//EN" "http://www.w3.org/Graphics/SVG/1.1/DTD/svg11.dtd">
<svg version="1.1" id="Layer_1" xmlns="http://www.w3.org/2000/svg" xmlns:xlink="http://www.w3.org/1999/xlink" x="0px" y="0px"
	 width="300px" height="200px" viewBox="0 0 300 200" enable-background="new 0 0 300 200" xml:space="preserve">
<path d="M278.741,90.422h-31.495l-30.183,28.832h-17.695l30.183-28.832h-32.366l10.111-9.675l82.224,0.001L278.741,90.422z
	 M137.195,90.422l-4.968,4.815h35.003c2.498,0,4.896-0.375,7.618,0.756c3.715,1.545,4.523,5.097,1.49,8.062
	c-3.334,3.264-6.421,6.177-10.704,10.186c-2.304,2.155-7.39,4.988-15.72,4.988l-60.21,0.002l10.112-9.628h53.679l4.979-4.739
	l-36.185-0.002c-10.508,0-12.151-5.161-8.111-8.992c3.334-3.162,5.923-5.652,10.702-10.279c1.962-1.898,5.525-4.247,11.844-4.844
	h64.347l-10.112,9.675H137.195z M95.749,107.935l-6.194,5.897l-5.748-5.047c1.818-0.002,3.254-0.002,4.247-0.002
	C90.839,108.783,93.413,108.497,95.749,107.935 M110.827,105.591h-9.095c1.332-0.77,2.57-1.69,3.738-2.776
	c0.939-0.874,1.831-1.704,2.681-2.498c0.052,0.764,0.221,1.521,0.514,2.255C109.015,103.452,109.657,104.554,110.827,105.591
	 M71.951,119.254l-16.442-14.429l-6.903,0.041l10.02-9.629h31.682l5.039-4.792h-37.48l-30.157,28.808H10.014l40.312-38.507h54.844
	c2.49,0,6.172,0.114,7.717,1.208c2.886,1.827,3.456,4.857,0.995,7.318c-3.002,3.003-6.786,6.548-11.146,10.601
	c-2.312,2.149-6.351,4.896-14.683,4.896c-2.667,0-8.294,0.008-14.884,0.021l16.477,14.462H71.951z M211.073,76.733h-74.538
	l-0.189,0.018c-5.96,0.565-10.759,2.569-14.256,5.958c-0.98,0.946-1.862,1.799-2.673,2.584c-0.005-0.07-0.011-0.14-0.02-0.208
	c-0.285-2.579-1.806-4.874-4.285-6.471c-1.952-1.334-4.849-1.881-9.942-1.881H48.715L0,123.268h29.32L44.357,108.9l9.65-0.054
	l16.432,14.421h29.864l-0.025-0.023l49.638-0.002c10.806,0,16.513-4.245,18.462-6.07c4.416-4.131,7.439-6.986,10.77-10.246
	c2.404-2.354,3.471-5.333,2.923-8.174c-0.315-1.638-1.139-3.115-2.369-4.316h7.481v0.001l32.356-0.001l-30.184,28.832h29.318
	l30.183-28.832h31.424L300,76.734L211.073,76.733z"/>
</svg>
