<?xml version="1.0" encoding="utf-8"?>
<!-- Generator: Adobe Illustrator 16.0.0, SVG Export Plug-In . SVG Version: 6.00 Build 0)  -->
<!DOCTYPE svg PUBLIC "-//W3C//DTD SVG 1.1//EN" "http://www.w3.org/Graphics/SVG/1.1/DTD/svg11.dtd">
<svg version="1.1" id="Layer_1" xmlns="http://www.w3.org/2000/svg" xmlns:xlink="http://www.w3.org/1999/xlink" x="0px" y="0px"
	 width="300px" height="200px" viewBox="0 0 300 200" enable-background="new 0 0 300 200" xml:space="preserve">
<path fill="#9A1818" d="M58.172,132.182c-0.329-1.39,3.84-5.639,9.072-7.604c5.233-1.96,19.13-6.784,19.13-6.784
	s-8.829,9.321-15.45,12.101C64.301,132.674,58.499,133.569,58.172,132.182 M295.455,46.22L171.35,105.613l-0.279,40.621
	l-58.83-16.808c0,0-33.897,16.235-48.185,21.288c-14.286,5.06-30.535,7.006-36.698,0c-6.164-7.003-1.959-16.807,3.082-22.13
	c5.043-5.321,8.965-8.128,8.965-8.128s8.701-15.936,26.612-26.049c23.813-13.448,53.788-15.409,53.788-15.409l45.943-39.454
	l3.362,29.648L295.455,46.22z M231.583,66.672l-70.316,12.606l-2.521-21.851l-36.139,30.815c0,0-9.808-1.702-36.697,6.726
	c-20.798,6.518-31.419,19.145-31.419,19.145l28.334-5.417c0,0,3.342-4.315,9.924-6.514c5.396-1.8,9.855-2.541,10.138-0.368
	c0.282,2.173-4.988,5.271-12.217,7.161c-6.443,1.684-24.554,6.239-39.122,13.807c-14.566,7.563-19.659,17.532-18.258,21.173
	c1.401,3.643,10.877,5.083,26.283-0.52c15.409-5.603,51.547-22.978,51.547-22.978l50.988,14.291l0.559-35.019L231.583,66.672z"/>
</svg>
