<?xml version="1.0" encoding="utf-8"?>
<!-- Generator: Adobe Illustrator 16.0.0, SVG Export Plug-In . SVG Version: 6.00 Build 0)  -->
<!DOCTYPE svg PUBLIC "-//W3C//DTD SVG 1.1//EN" "http://www.w3.org/Graphics/SVG/1.1/DTD/svg11.dtd">
<svg version="1.1" id="Layer_1" xmlns="http://www.w3.org/2000/svg" xmlns:xlink="http://www.w3.org/1999/xlink" x="0px" y="0px"
	 width="300px" height="200px" viewBox="0 0 300 200" enable-background="new 0 0 300 200" xml:space="preserve">
<g>
	<g id="palette_verde-acido">
		<g id="Rectangle">
			<rect fill="#C6FF00" width="300" height="200"/>
		</g>
	</g>
</g>
<path fill-rule="evenodd" clip-rule="evenodd" d="M146.484,134.621h-0.792V66.419h0.792V134.621z M256.017,100.676
	c0.871-3.594-3.43-3.075-6.123-3.14c-3.125-0.076-6.256-0.042-9.385-0.044c-2.731-0.001-6.409-0.191-8.648,0.854
	c-1.943,0.908-3.456,2.796-4.102,5.287c-0.438,1.688-0.013,2.551,1.544,2.889c1.771,0.385,11.687,0.234,13.888,0.234
	c2.812,0,6.357,0.279,8.665-0.864C253.947,104.855,255.465,102.947,256.017,100.676L256.017,100.676z M233.693,91.489
	c1.114-0.226,2.421-0.718,3.616-1c4.279-1.008,8.001-1.326,12.487-1.4c2.18-0.036,15.113,0.436,17.421,1.057
	c6.286,1.695,2.967,8.15,1.131,12.324c-0.969,2.203-2.163,4.129-3.45,5.74c-1.327,1.663-3.082,3.269-5.002,4.287
	c-5.144,2.731-9.43,2.613-15.845,2.613c-6.158,0-12.321-0.027-18.479-0.024c-2.737,0.002-5.971,0.11-8.414-0.729
	c-2.039-0.7-4.04-2.535-4.14-5.155c-0.109-2.834,3.772-11.212,4.975-13.611c1.857-3.71,6.602-11.868,9.29-14.943l1.749-1.698
	c4.588-4.018,7.91-4.341,14.06-4.392c3.073-0.026,6.222-0.119,9.291-0.044c6.063,0.148,12.062,0.217,18.098,0.401
	c1.368,0.042,2.98-0.05,4.16,0.436c0.991,0.409,2.134,1.175,2.495,2.107c0.516,1.33-1.204,6.036-1.67,7.328
	c-0.507,1.409,0.19,0.92-3.549,1.03l-6.894-0.022c-0.789-0.033-1.337,0.01-1.518-0.743c-0.353-1.479-0.742-2.144-2.142-2.549
	c-1.578-0.457-7.025-0.249-8.981-0.194c-2.994,0.084-5.979,0.092-8.953,0.325c-3.777,0.296-4.655,0.523-6.634,2.646
	C235.793,86.355,234.095,89.953,233.693,91.489L233.693,91.489z M103.058,93.804c2.139-0.171,4.918-0.022,7.128-0.022
	c2.364,0,4.724-0.024,7.086-0.024c2.271,0,4.753,0.357,5.721-1.341c0.776-1.362,0.84-4.684,0.327-6.312
	c-0.697-2.211-2.137-2.333-4.711-2.399c-7.099-0.181-14.172-0.051-21.279-0.051c-0.252,0.099-0.162,0.042-0.177,0.448l0.034,9.655
	C97.663,93.897,102.398,93.886,103.058,93.804L103.058,93.804z M97.15,114.811l-11.957,0.038l-0.095-0.003l-0.001-41.197
	c6.916,0.006,13.782,0.104,20.683,0.096c3.438-0.004,6.936,0.104,10.34,0.096c3.259-0.007,7.068-0.043,10.244,0.236
	c7.067,0.622,9.255,3.976,9.671,11.09c0.227,3.884,0.161,7.856-1.998,10.83c-0.573,0.791-2.091,1.708-3.12,2.047
	c-0.716,0.235-1.49,0.338-2.14,0.541c0.408,0.263,1.525,0.64,2.049,0.894c2.046,0.989,3.595,2.141,4.494,4.407
	c0.886,2.229,0.927,8.562,0.686,11.218l-12.506,0.01c-0.526-3.963,0.81-9.239-3.337-10.433c-1.122-0.323-3.185-0.245-4.422-0.245
	c-6.186,0-12.377,0.005-18.563,0L97.15,114.811L97.15,114.811z M169.239,97.635c7.392-0.001,14.979,0.166,22.343-0.022
	c1.715-0.043,2.06-1.562,2.703-2.851c0.62-1.241,1.255-2.458,1.838-3.711c0.603-1.298,3.359-6.704,3.575-7.5l-30.563,13.37
	L169.239,97.635L169.239,97.635z M152.108,106.732c0.224-0.656,3.696-7.151,4.151-8.056c0.676-1.345,1.385-2.649,2.1-3.927
	c1.118-2.002,0.96-2.503,2.741-3.294c5.631-2.5,11.218-4.865,16.835-7.39c5.59-2.512,11.271-4.86,16.906-7.321
	c1.437-0.627,2.857-1.22,4.301-1.828c0.713-0.3,1.437-0.586,2.184-0.881c1.198-0.473,1.066-0.509,2.509-0.507
	c3.947,0.004,7.984-0.048,11.97-0.048l2.199,0.025l-11.875,24.177l6.936,0.011l-4.495,9.039l-6.965-0.008l-3.868,8.314l-13.15,0.071
	c0.153-0.855,3.695-7.456,3.853-8.378H152.108L152.108,106.732z M21.548,73.528c0.119,0.571,1.009,1.984,1.325,2.617
	c1.16,2.321,2.911,5.407,4.154,7.722c0.932,1.734,1.826,3.46,2.786,5.16c1.849,3.274,3.729,7.023,5.576,10.322
	c0.949,1.695,1.914,3.419,2.802,5.143c1.69,3.28,3.932,7.023,5.657,10.238l15.97,0.044c0.431-0.228,0.569-0.85,0.789-1.249
	c0.261-0.474,0.465-0.866,0.699-1.312l8.271-15.475c0.472-0.85,0.9-1.69,1.385-2.538c0.478-0.835,0.969-1.743,1.416-2.605
	c1.302-2.517,2.946-5.279,4.179-7.697c1.065-2.089,4.811-8.558,5.544-10.245L68.25,73.601l-2.104,3.818
	c-2.001,3.527-3.895,8.043-5.979,11.732c-2.065,3.657-4.234,7.993-6.288,11.522c-0.365,0.629-0.689,1.302-1.04,1.932
	c-0.247,0.443-0.791,1.58-1.095,1.83l-2.149-3.878C47.349,96.5,35.511,73.603,35.017,73.475L21.548,73.528L21.548,73.528z"/>
</svg>
