<?xml version="1.0" encoding="utf-8"?>
<!-- Generator: Adobe Illustrator 16.0.0, SVG Export Plug-In . SVG Version: 6.00 Build 0)  -->
<!DOCTYPE svg PUBLIC "-//W3C//DTD SVG 1.1//EN" "http://www.w3.org/Graphics/SVG/1.1/DTD/svg11.dtd">
<svg version="1.1" id="Layer_1" xmlns="http://www.w3.org/2000/svg" xmlns:xlink="http://www.w3.org/1999/xlink" x="0px" y="0px"
	 width="300px" height="200px" viewBox="0 0 300 200" enable-background="new 0 0 300 200" xml:space="preserve">
<path d="M293.546,108.659c0.839-1.183,2.704-1.37,3.798-0.44c1.168,0.983,1.358,2.914,0.4,4.104c-0.93,1.254-3.021,1.332-4.04,0.151
	c-0.552-0.52-0.726-1.279-0.788-2.003C292.975,109.827,293.109,109.161,293.546,108.659 M294.173,108.563
	c0.013,1.345,0.002,2.689,0.008,4.033c0.294-0.005,0.596-0.009,0.896-0.018c-0.01-0.565-0.012-1.131-0.006-1.696
	c0.347,0.05,0.815,0.023,0.988,0.409c0.141,0.422,0.161,0.878,0.306,1.305c0.291-0.003,0.587-0.003,0.888-0.003
	c-0.183-0.698-0.087-1.551-0.701-2.054c0.89-0.302,0.817-1.708-0.057-1.962C295.745,108.357,294.93,108.405,294.173,108.563
	 M295.068,109.142c0.284-0.004,0.572-0.008,0.867-0.017c0.282,0.233,0.377,0.562,0.284,0.916c-0.366,0.15-0.765,0.197-1.151,0.205
	C295.066,109.877,295.064,109.51,295.068,109.142L295.068,109.142z"/>
<path d="M295.002,106.913c2.09-0.426,4.283,1.364,4.217,3.507c0.125,1.974-1.699,3.793-3.674,3.661
	c-2.138,0.021-3.915-2.189-3.446-4.269C292.344,108.361,293.56,107.168,295.002,106.913 M293.546,108.659
	c-0.437,0.502-0.571,1.168-0.63,1.812c0.062,0.724,0.236,1.483,0.788,2.003c1.02,1.181,3.11,1.103,4.04-0.151
	c0.958-1.19,0.768-3.121-0.4-4.104C296.25,107.289,294.385,107.477,293.546,108.659 M294.173,108.563
	c0.757-0.158,1.572-0.206,2.321,0.015c0.874,0.254,0.946,1.66,0.057,1.962c0.614,0.503,0.519,1.355,0.701,2.054
	c-0.301,0-0.597,0-0.888,0.003c-0.145-0.427-0.165-0.883-0.306-1.305c-0.173-0.386-0.642-0.359-0.988-0.409
	c-0.006,0.565-0.004,1.131,0.006,1.696c-0.3,0.009-0.602,0.013-0.896,0.018C294.175,111.253,294.186,109.908,294.173,108.563
	 M295.068,109.142c-0.004,0.368-0.002,0.735,0,1.104c0.387-0.008,0.785-0.055,1.151-0.205c0.093-0.354-0.002-0.683-0.284-0.916
	C295.641,109.134,295.353,109.138,295.068,109.142 M3.7,124.289c0.371-0.117,0.755-0.145,1.137-0.14
	c4.94,0.021,9.882-0.008,14.819,0.016c0.856-0.023,1.465,0.978,1.099,1.742c-0.221,0.594-0.917,0.777-1.49,0.8
	c-3.03,0.005-6.064-0.007-9.096,0.004c-1.83-0.113-3.675-0.202-5.501,0.005c-1.208,0.133-2.043,1.286-2.093,2.448
	c-0.056,1.715,0.051,3.435-0.048,5.146c-0.048,0.985-1.358,1.495-2.062,0.823c-0.627-0.471-0.424-1.328-0.452-2.002
	c0.086-2.052-0.324-4.234,0.649-6.141C1.311,125.785,2.352,124.668,3.7,124.289 M23.937,126.956
	c0.758-1.503,2.249-2.818,4.013-2.803c3.885,0,7.769,0.007,11.654-0.004c1.067-0.012,2.106,0.441,2.874,1.175
	c1.834,1.78,2.392,4.721,1.309,7.041c-0.683,1.68-2.247,3.027-4.1,3.14H27.864c-0.738-0.128-1.514-0.261-2.123-0.728
	C23.301,133.105,22.605,129.539,23.937,126.956 M27.654,126.751c-1.599,0.429-2.221,2.323-1.904,3.808
	c0.114,1.298,1.267,2.413,2.594,2.38c3.625,0.014,7.255,0.007,10.883,0.004c1.23,0.023,2.36-0.945,2.575-2.147
	c0.159-0.802,0.132-1.654-0.143-2.432c-0.345-1-1.388-1.75-2.459-1.663C35.354,126.742,31.495,126.646,27.654,126.751
	 M50.22,124.377c0.712-0.272,1.484-0.231,2.229-0.228c4.739,0.021,9.477-0.012,14.215,0.019c0.918-0.032,1.511,1.107,1.032,1.87
	c-0.282,0.623-1.039,0.671-1.63,0.674c-4.742-0.014-9.484,0.001-14.224-0.012c-0.715-0.041-1.393,0.293-1.88,0.802
	c-0.804,0.917-0.914,2.266-0.642,3.412c0.245,1.147,1.331,2.056,2.517,2.026c4.877,0.012,9.756,0,14.632,0.005
	c0.655-0.048,1.405,0.462,1.385,1.165c0.063,0.691-0.46,1.26-1.114,1.395H51.173c-1.081-0.124-2.12-0.601-2.84-1.428
	c-1.482-1.729-1.973-4.264-1.191-6.414C47.662,126.221,48.735,124.889,50.22,124.377 M70.914,124.35
	c0.683-0.531,1.812,0.027,1.851,0.871c0.051,1.52-0.028,3.038,0.025,4.558c0.051,0.875,0.186,1.852,0.891,2.452
	c0.584,0.613,1.459,0.764,2.269,0.722c3.354-0.016,6.708-0.005,10.061-0.004c0.739,0.018,1.52-0.195,2.024-0.764
	c0.641-0.623,0.816-1.543,0.849-2.399c0.043-1.519-0.037-3.043,0.024-4.561c0.008-0.565,0.543-0.955,1.048-1.075
	c0.539-0.061,1.08,0.287,1.324,0.758c0.143,0.883,0.029,1.789,0.061,2.686c-0.04,1.564,0.204,3.204-0.464,4.681
	c-0.646,1.693-2.196,3.033-4.028,3.231H74.713c-1.733-0.18-3.187-1.455-3.829-3.039c-0.896-1.824-0.456-3.902-0.562-5.853
	C70.369,125.851,70.083,124.787,70.914,124.35 M93.814,127.603c-0.079-1.856,1.633-3.479,3.46-3.444
	c5.201-0.002,10.4-0.009,15.598,0.002c0.931-0.085,1.63,1.01,1.207,1.832c-0.268,0.502-0.848,0.742-1.398,0.717
	c-5.139,0-10.277,0-15.416-0.002c-0.43-0.073-0.734,0.239-1.03,0.489c0.046,0.31,0.021,0.644,0.153,0.936
	c0.261,0.43,0.829,0.446,1.275,0.471c4.612-0.004,9.229,0.002,13.844-0.004c0.738-0.018,1.477,0.206,2.075,0.645
	c1.554,1.091,1.863,3.563,0.602,4.993c-0.578,0.747-1.496,1.113-2.402,1.269H95.754c-0.555-0.136-1.193-0.535-1.151-1.181
	c-0.152-0.826,0.698-1.446,1.462-1.377c5.211-0.015,10.427,0.019,15.639-0.015c0.717,0.052,1.145-0.939,0.671-1.452
	c-0.281-0.426-0.817-0.439-1.27-0.434c-4.351,0.013-8.704-0.004-13.055,0.008c-0.697-0.006-1.43,0.071-2.084-0.221
	C94.721,130.286,93.743,129.006,93.814,127.603 M131.215,125.009c0.785-0.622,1.794-0.878,2.786-0.859
	c3.755,0.017,7.512-0.005,11.268,0.011c2.397,0.02,4.2,2.228,4.603,4.446c0.651,2.911-1.169,6.527-4.325,6.898H133.17
	c-2.102-0.314-3.631-2.204-4.063-4.202C128.496,129.041,129.358,126.439,131.215,125.009 M133.52,126.749
	c-2.084,0.389-2.659,3.05-1.832,4.741c0.378,0.802,1.185,1.459,2.104,1.448c3.563,0.02,7.127-0.004,10.688,0.011
	c0.525-0.002,1.088,0.015,1.568-0.244c0.896-0.422,1.418-1.402,1.489-2.364c0.116-1.163-0.153-2.543-1.22-3.2
	c-0.89-0.625-2.02-0.398-3.035-0.432C140.029,126.736,136.769,126.65,133.52,126.749 M155.856,124.407
	c0.977-0.346,2.021-0.242,3.038-0.251c2.828-0.003,5.662,0.007,8.492-0.007c0.754-0.004,1.535,0.096,2.212,0.457
	c1.926,0.991,2.989,3.241,2.923,5.355c-0.021,1.458,0.005,2.92-0.01,4.379c0.037,0.591-0.512,1.026-1.035,1.164h-0.448
	c-0.416-0.203-0.917-0.484-0.938-1.004c-0.148-1.884,0.161-3.793-0.185-5.657c-0.182-1.188-1.296-2.157-2.501-2.135
	c-3.232-0.009-6.468,0.004-9.7-0.009c-0.951-0.019-1.926,0.48-2.373,1.337c-0.304,0.522-0.379,1.137-0.393,1.73
	c-0.029,1.522,0.029,3.045-0.015,4.563c0.003,0.622-0.528,1.038-1.085,1.174h-0.394c-0.488-0.213-0.969-0.601-1.024-1.166
	c-0.083-0.728-0.027-1.463-0.033-2.193c-0.003-1.652-0.12-3.388,0.599-4.927C153.566,125.988,154.544,124.86,155.856,124.407
	 M186.457,125.622c-0.046-0.808,0.661-1.516,1.471-1.462c4.998-0.011,9.998,0,15-0.004c1.379,0.002,2.87,0.688,3.439,2.009
	c0.616,1.185,0.383,2.64-0.375,3.701c0.402,0.698,0.783,1.453,0.704,2.286c0.04,1.702-1.443,3.112-3.066,3.353h-16.039
	c-0.667-0.106-1.176-0.699-1.134-1.384C186.451,131.29,186.449,128.454,186.457,125.622 M189.004,126.707
	c0.002,0.622,0,1.249-0.008,1.871c4.648,0.05,9.297,0.003,13.943,0.028c0.388,0.026,0.768-0.078,1.117-0.239
	c0.095-0.199,0.195-0.4,0.298-0.597c-0.079-0.502-0.428-1.076-0.996-1.058C198.574,126.696,193.787,126.712,189.004,126.707
	 M188.996,131.167c0.008,0.588,0.008,1.171,0,1.76c4.784,0.039,9.568,0.01,14.354,0.019c0.543,0.095,0.816-0.425,1.023-0.827
	c-0.089-0.506-0.448-1.048-1.027-0.967C198.562,131.159,193.778,131.126,188.996,131.167 M210.375,126.151
	c0.805-1.194,2.166-1.981,3.618-1.985c3.358-0.028,6.716,0.002,10.073-0.013c1.11-0.008,2.31-0.069,3.308,0.517
	c1.719,0.906,2.667,2.849,2.841,4.728c0.229,2.667-1.471,5.687-4.274,6.107h-12.584c-1.154-0.196-2.208-0.846-2.897-1.785
	C208.794,131.562,208.709,128.332,210.375,126.151 M213.898,126.72c-0.914,0.167-1.8,0.753-2.079,1.678
	c-0.43,1.36-0.349,3.142,0.87,4.085c0.465,0.417,1.103,0.492,1.704,0.472c3.755-0.02,7.512,0.027,11.267-0.02
	c1.854-0.317,2.507-2.594,1.997-4.199c-0.231-1.279-1.555-2.116-2.804-2.043C221.201,126.718,217.55,126.663,213.898,126.72
	 M233.417,126.884c0.774-1.535,2.326-2.726,4.092-2.712c3.089-0.04,6.183-0.004,9.271-0.016c1.23,0.025,2.513-0.129,3.69,0.308
	c1.953,0.813,3.085,2.899,3.266,4.934c0.197,2.663-1.476,5.701-4.298,6.107h-12.582c-1.014-0.18-1.964-0.692-2.637-1.475
	C232.54,132.104,232.154,129.127,233.417,126.884 M237.412,126.728c-0.852,0.149-1.679,0.696-2.017,1.514
	c-0.335,0.732-0.32,1.562-0.241,2.353c0.126,1.248,1.212,2.459,2.535,2.354c3.829-0.017,7.658,0.024,11.48-0.022
	c1.821-0.313,2.479-2.543,1.999-4.12c-0.19-1.315-1.532-2.176-2.803-2.104C244.717,126.726,241.062,126.671,237.412,126.728
	 M255.839,124.614c0.395-0.465,1.051-0.435,1.604-0.461c2.175,0.003,4.345,0.003,6.521,0.003c3.227-0.052,6.448,0.18,9.677,0.093
	c0.65,0.032,1.489-0.165,1.944,0.448c0.538,0.693,0.124,1.861-0.76,1.98c-1.119,0.082-2.242,0.004-3.365,0.031
	c-1.048,0.053-2.184-0.208-3.149,0.332c-0.943,0.438-1.324,1.548-1.372,2.521c-0.07,1.594,0.021,3.193-0.036,4.788
	c0.027,0.588-0.49,1.016-1.014,1.155h-0.559c-0.377-0.22-0.842-0.488-0.848-0.982c-0.048-1.643,0.002-3.29-0.024-4.936
	c-0.027-1.021,0.337-1.996,0.802-2.889c-2.875,0.002-5.749,0.029-8.619-0.012C255.646,126.671,255.178,125.294,255.839,124.614
	 M278.401,126.62c0.41-1.335,1.73-2.354,3.133-2.367c5.202,0.002,10.407,0.008,15.613-0.004c0.379,0.006,0.808,0.014,1.11,0.286
	c0.49,0.478,0.49,1.335,0.052,1.845c-0.307,0.309-0.764,0.333-1.166,0.333c-5.137-0.017-10.274-0.001-15.408-0.006
	c-0.424-0.05-0.722,0.293-1.031,0.514c-0.118,0.657,0.261,1.448,1.022,1.378c4.215,0.008,8.432,0,12.646,0.002
	c0.958,0.01,1.955-0.108,2.863,0.272c1.814,0.616,2.712,2.947,1.877,4.65c-0.444,1.092-1.526,1.783-2.659,1.981h-16.486
	c-1.276-0.28-1.208-2.465,0.185-2.45c5.266-0.033,10.534,0.011,15.802-0.017c0.418,0.027,0.725-0.285,1.039-0.515
	c-0.059-0.355-0.016-0.741-0.179-1.068c-0.228-0.349-0.707-0.282-1.058-0.311c-4.607,0.007-9.218,0.003-13.822,0.003
	c-1.279,0.023-2.571-0.607-3.209-1.738C278.213,128.585,278.181,127.543,278.401,126.62 M5.104,128.664
	c0.288-0.136,0.609-0.179,0.925-0.168c4.21,0.013,8.421,0.002,12.632,0.004c0.586-0.024,1.265,0.191,1.495,0.783
	c0.357,0.748-0.229,1.795-1.088,1.762c-4.474,0.015-8.948,0.002-13.422,0.009c-0.743,0.053-1.449-0.727-1.269-1.46
	C4.466,129.193,4.682,128.778,5.104,128.664L5.104,128.664z"/>
<path d="M4.014,65.737c0.479-0.832,1.475-1.246,2.406-1.236c28.513,0.005,57.022,0,85.537,0.005
	c0.684-0.056,1.441,0.267,1.647,0.973c0.267,0.829-0.43,1.502-0.76,2.195c-0.449,0.933-1.447,1.56-2.484,1.542
	c-8.074,0.005-16.147,0.002-24.222,0.003c-2.29,3.963-4.591,7.925-6.88,11.894c-0.208,0.327-0.429,0.794-0.901,0.715
	c-12.04,0.011-24.083-0.003-36.125,0.007c-0.328-0.004-0.737,0.029-0.93-0.293c-0.214-0.247,0.02-0.521,0.134-0.743
	c2.241-3.857,4.478-7.714,6.71-11.576c-7.9-0.011-15.798,0-23.695-0.005c-0.879,0.096-1.662-0.788-1.442-1.645
	C3.258,66.921,3.669,66.345,4.014,65.737 M121.78,64.629c2.356-0.171,4.721-0.118,7.082-0.124c18.967,0,37.933-0.004,56.896,0.001
	c0.954-0.112,1.758,0.99,1.348,1.857c-0.319,0.65-0.709,1.263-1.086,1.877c-0.469,0.752-1.423,0.97-2.249,0.975
	c-11.716,0.007-23.434,0.002-35.149,0.003c-2.335,0.032-4.673-0.072-7.004,0.074c-3.063,0.205-6.123,1.282-8.415,3.37
	c-2.615,2.285-4.122,5.469-5.854,8.413c-0.279,0.516-0.866,0.806-1.443,0.755c-11.519,0-23.035,0.002-34.551,0
	c-0.792-0.015-1.583,0.042-2.374-0.023c-0.434-0.101-0.486-0.706-0.154-0.958c2.581-2.828,5.454-5.396,8.577-7.613
	c2.734-1.96,5.783-3.412,8.843-4.777C111.153,66.3,116.425,64.963,121.78,64.629 M193.438,66.803
	c-0.809-0.63-0.331-2.051,0.613-2.26c0.519-0.071,1.046-0.033,1.569-0.038c12.844,0,25.686,0,38.529,0
	c0.717,0.015,1.439-0.062,2.151,0.066c0.823,0.181,1.408,0.845,2.003,1.395c4.801,4.554,9.598,9.111,14.41,13.656
	c10.743-4.929,21.497-9.846,32.239-14.775c0.534-0.262,1.129-0.346,1.722-0.346c3.684,0,7.368,0.005,11.048,0
	c0.631,0.004,1.385-0.078,1.859,0.433c0.675,0.652,0.522,1.958-0.379,2.325c-9.57,4.385-19.157,8.739-28.733,13.111
	c-1.19,0.466-2.297,1.211-3.549,1.482c-18.893,0.019-37.789,0-56.688,0.009c-0.49,0.014-1.002-0.118-1.345-0.486
	C203.742,76.517,198.587,71.66,193.438,66.803 M17.172,88.607c12.216-0.08,24.441-0.01,36.664-0.033
	c0.498-0.115,0.896,0.472,0.583,0.89c-2.987,5.187-5.988,10.366-8.984,15.546c-0.598,0.959-1.858,1.023-2.873,1.037
	c-10.792,0.01-21.586-0.001-32.382,0.008c-0.457-0.01-0.927,0.037-1.374-0.086c-0.795-0.229-1.177-1.298-0.708-1.983
	c2.885-5.004,5.789-10.004,8.669-15.013C16.846,88.786,16.982,88.663,17.172,88.607 M84.504,88.587
	c0.286-0.131,0.613-0.072,0.916-0.093c12.185,0.012,24.366,0,36.547,0.008c0.427-0.114,0.874,0.366,0.628,0.767
	c-1.094,2.005-2.327,3.937-3.382,5.964c-1.145,2.737,1.151,6.154,4.13,6.097c13.693,0.017,27.386,0.002,41.08,0.009
	c0.992-0.135,1.812,1.038,1.327,1.92c-0.469,0.87-0.868,1.869-1.743,2.42c-0.516,0.343-1.158,0.372-1.756,0.374
	c-19.153-0.005-38.307,0-57.46,0c-4.237,0.028-8.558-0.188-12.597-1.576c-2.496-0.857-4.9-2.248-6.52-4.374
	c-1.464-1.892-2.185-4.289-2.236-6.665c0.063-1.257,0.254-2.512,0.512-3.746C84.057,89.301,84.1,88.798,84.504,88.587
	 M204.342,88.784c0.295-0.145,0.623-0.229,0.959-0.213c17.844,0.005,35.69,0,53.537,0.001c1.073,0.032,2.153-0.061,3.223,0.044
	c2.416,2.117,4.699,4.393,7.056,6.578c3.021,2.845,6.043,5.688,9.061,8.535c0.804,0.69,0.284,2.19-0.751,2.285
	c-1.46,0.089-2.923,0.011-4.382,0.036c-11.918,0.002-23.834-0.003-35.749,0.002c-0.766-0.017-1.575,0.077-2.285-0.263
	c-0.676-0.343-1.17-0.934-1.723-1.43c-4.756-4.475-9.474-8.993-14.252-13.442c-9.628,4.433-19.287,8.803-28.928,13.21
	c-1.442,0.589-2.803,1.415-4.284,1.869c-4.101,0.116-8.209,0.033-12.31,0.046c-1.039,0.055-1.82-1.188-1.344-2.104
	c0.295-0.639,1.028-0.837,1.61-1.123C183.969,98.14,194.155,93.46,204.342,88.784L204.342,88.784z"/>
</svg>
