<?xml version="1.0" encoding="utf-8"?>
<!-- Generator: Adobe Illustrator 16.0.0, SVG Export Plug-In . SVG Version: 6.00 Build 0)  -->
<!DOCTYPE svg PUBLIC "-//W3C//DTD SVG 1.1//EN" "http://www.w3.org/Graphics/SVG/1.1/DTD/svg11.dtd">
<svg version="1.1" id="Layer_1" xmlns="http://www.w3.org/2000/svg" xmlns:xlink="http://www.w3.org/1999/xlink" x="0px" y="0px"
	 width="300px" height="200px" viewBox="0 0 300 200" enable-background="new 0 0 300 200" xml:space="preserve">
<path fill="#1D1D1B" d="M174.93,90.996l-2.884,7.923c-2.414-1.327-5.543-2.257-9.199-2.643l-41.194-4.458
	c-1.328-0.142-2.127-0.833-1.821-1.673c0.341-0.938,1.935-1.701,3.56-1.701h71.279l3.963-10.888h-71.281
	c-12.009,0-23.799,5.637-26.329,12.591c-2.259,6.207,3.634,11.35,13.465,12.388l41.189,4.467c1.795,0.191,2.87,1.128,2.459,2.257
	c-0.46,1.271-2.613,2.3-4.804,2.3H93.23l-3.964,10.884h60.104c5.332,0,10.621-1.064,15.146-2.841l-1.029,2.841h18.81l11.445-31.447
	H174.93z M281.188,77.556l-3.023,8.308c-5.263-5.067-14.929-8.308-27.082-8.308h-49.561l-16.333,44.888l49.552-0.002
	c12.158,0,24.181-3.238,33.134-8.306l-3.021,8.308h18.809L300,77.556H281.188z M262.875,100.001
	c-2.324,6.38-13.141,11.558-24.169,11.558h-30.743l8.409-23.115h30.745C258.146,88.444,265.199,93.619,262.875,100.001"/>
<path fill="#1D1D1B" d="M289.602,119.745c0-1.258,0.948-2.209,2.161-2.209c1.2,0,2.15,0.951,2.15,2.209
	c0,1.276-0.95,2.216-2.15,2.216C290.55,121.961,289.602,121.021,289.602,119.745 M291.763,122.404c1.447,0,2.683-1.122,2.683-2.659
	c0-1.526-1.235-2.649-2.683-2.649c-1.459,0-2.697,1.123-2.697,2.649C289.065,121.282,290.304,122.404,291.763,122.404
	 M291.201,119.954h0.533l0.809,1.328h0.521l-0.872-1.347c0.448-0.058,0.792-0.298,0.792-0.848c0-0.601-0.356-0.869-1.083-0.869
	h-1.162v3.063h0.463V119.954z M291.201,119.56v-0.941h0.634c0.322,0,0.663,0.066,0.663,0.442c0,0.467-0.351,0.499-0.745,0.499
	H291.201z"/>
<path fill="#E22128" d="M46.449,93.227c-2.549,2.318-8.839,4.532-13.657,2.417c-4.704-2.062-2.763-5.634,0.239-7.355
	c3.135-1.8,9.267-4.129,19.46-4.163c10.477-0.04,18.888,1.837,25.091,4.724c6.353,2.959,10.58,7.165,10.58,13.992
	c0,7.954-11.838,19.081-29.916,22.07c4.532-2.567,5.817-4.342,6.346-5.172c-7.469,3.382-22.389,5.882-38.774,4.73
	c3.602-0.522,9.209-2.15,11.787-3.478c-12.749-0.121-25.817-3.6-33.418-8.601c3.54,0.875,9.775,1.646,13.658,1.135
	C8.651,110.232,0,104.492,0,96.487c0.953,1.401,5.159,4.666,8.284,5.379c-2.769-3.114-6.261-12.377,4.186-20.051
	c-1.109,2.321-0.443,4.522,0.266,5.958c2.854-3.585,9.603-8.688,21.763-11.29c-1.989,1.552-3.179,2.827-4.273,4.426
	c4.732-2.261,14.283-5.818,29.607-5.818c-4.468,0.692-6.937,1.643-9.253,2.966c5.689-0.461,16.738-0.986,29.959,3.338
	c-3.312-0.312-5.402-0.285-8.68-0.068c6.079,1.307,13.113,4.534,18.175,8.947c-8.009-3.087-16.871-7.613-36.236-7.613
	c-20.246,0-26.612,5.95-26.612,9.803c0,3.852,5.775,7.75,18.034,7.75c6.558,0,10.658-0.93,14.187-2.623
	c3.28-1.577,5.417-4.729,0.712-6.792C55.299,88.685,48.997,90.907,46.449,93.227"/>
<path fill="#FFFFFF" d="M82.846,92.25L49.32,123.512c6.466-0.923,11.745-2.363,15.2-3.926l0.46-0.206l22.361-20.854
	C86.565,96.137,85.079,94.066,82.846,92.25"/>
<path fill="#06894E" d="M77.582,88.849c-0.509-0.237-1.037-0.464-1.576-0.687l-39.2,36.551c4.37-0.106,8.509-0.456,12.286-0.987
	l33.88-31.592C81.438,90.882,79.622,89.8,77.582,88.849"/>
</svg>
