<?xml version="1.0" encoding="utf-8"?>
<!-- Generator: Adobe Illustrator 16.0.0, SVG Export Plug-In . SVG Version: 6.00 Build 0)  -->
<!DOCTYPE svg PUBLIC "-//W3C//DTD SVG 1.1//EN" "http://www.w3.org/Graphics/SVG/1.1/DTD/svg11.dtd">
<svg version="1.1" id="Layer_1" xmlns="http://www.w3.org/2000/svg" xmlns:xlink="http://www.w3.org/1999/xlink" x="0px" y="0px"
	 width="300px" height="200px" viewBox="0 0 300 200" enable-background="new 0 0 300 200" xml:space="preserve">
<path id="path16_2_" fill="#F3671A" d="M159.855,172.304c2.086-0.96,3.259-3.02,3.259-5.792c0-2.388-0.886-4.331-2.561-5.604
	c-1.39-1.062-3.343-1.646-5.493-1.646h-12.189l-0.677,0.669v25.922l0.677,0.672h12.943c3.896,0,8.053-2.003,8.053-7.634
	C163.867,175.557,162.487,173.305,159.855,172.304 M154.666,170.372h-6.603l-0.088-0.08v-5.504l0.088-0.088h6.603
	c1.624,0,2.849,0.811,2.849,2.844C157.515,169.584,156.29,170.372,154.666,170.372 M147.976,175.355l0.086-0.085h6.372
	c2.499,0,3.572,0.935,3.572,3.134c0,2.201-1.073,3.144-3.572,3.144h-6.372l-0.086-0.085V175.355z M53.292,178.517
	c0,5.251-4.356,8.388-11.646,8.388c-7.291,0-11.646-3.42-11.646-9.135v-0.194l0.673-0.688h5.067l0.67,0.679v0.203
	c0,1.876,0.68,3.617,5.618,3.617c3.224,0,4.854-0.962,4.854-2.87c0-2.074-0.892-2.842-6.457-3.621
	c-4.311-0.604-10.042-2.126-10.042-8.384c0-3.682,2.861-7.627,10.881-7.627c6.913,0,10.875,3.055,10.875,8.38l-0.017,0.214
	l-0.669,0.673h-5.038l-0.667-0.673l-0.015-0.214c0-1.566-0.364-2.862-4.853-2.862c-4.086,0-4.086,1.587-4.086,2.109
	c0,1.766,0.932,2.484,6.463,3.252C49.916,170.696,53.292,173.641,53.292,178.517 M63.377,172.892c0,3.171,0.349,8.495,6.283,8.495
	c2.815,0,4.362-1.037,5.017-3.385l0.077-0.315l0.652-0.425h4.7l0.677,0.675l-0.019,0.283c-0.764,5.432-4.913,8.685-11.104,8.685
	c-7.979,0-12.931-5.372-12.931-14.013s4.953-14.007,12.931-14.007c6.082,0,10.33,3.186,11.104,8.305l0.035,0.289l-0.673,0.673h-4.72
	l-0.624-0.421l-0.105-0.303c-0.661-2.033-2.302-3.025-5.017-3.025C63.727,164.402,63.377,169.725,63.377,172.892 M107.213,159.262
	l0.667,0.669v25.922l-0.667,0.672h-5.063l-0.673-0.672V175.35l-0.081-0.075h-9.929l-0.08,0.081v10.497l-0.671,0.672h-5.064
	l-0.671-0.672v-25.922l0.671-0.669h5.064l0.671,0.669v9.755l0.08,0.075h9.929l0.081-0.075v-9.755l0.673-0.669H107.213z M270,159.931
	v25.922l-0.672,0.672h-5.064l-0.674-0.672v-10.497l-0.079-0.081h-9.931l-0.083,0.081v10.497l-0.665,0.672h-5.071l-0.667-0.672
	v-25.922l0.667-0.669h5.071l0.665,0.669v9.755l0.083,0.078h9.931l0.079-0.078v-9.755l0.674-0.669h5.064L270,159.931z
	 M135.68,159.262l0.674,0.669v15.966c0,6.99-4.176,11.008-11.452,11.008c-7.28,0-11.452-4.018-11.452-11.008v-15.966l0.667-0.669
	h5.177l0.671,0.669v15.966c0,3.749,1.57,5.49,4.937,5.49c3.369,0,4.934-1.741,4.934-5.49v-15.966l0.67-0.669H135.68z
	 M188.581,159.262l0.679,0.669v4.154l-0.679,0.672h-12.632l-0.076,0.076v5.337l0.076,0.071h11.874l0.673,0.678v3.625l-0.673,0.669
	h-11.874l-0.076,0.077v5.66l0.076,0.07h12.632l0.679,0.68v4.152l-0.679,0.672h-18.425l-0.672-0.672v-25.922l0.672-0.669H188.581z
	 M241.969,159.262l0.672,0.669v4.173l-0.672,0.668h-7.549l-0.08,0.082v20.999l-0.673,0.672h-4.958l-0.673-0.672v-20.999
	l-0.074-0.082H220.4l-0.665-0.668v-4.173l0.665-0.669H241.969z M216.476,167.639c0-5.244-3.408-8.377-9.069-8.377h-11.317
	l-0.672,0.669v25.922l0.672,0.672h4.619l0.672-0.672v-9.749l0.072-0.081h3.257l0.516,0.269l7.072,9.663l0.061,0.092l0.733,0.479
	h3.325l0.672-0.672V182.7l-5.25-7.209C214.356,174.642,216.476,172.152,216.476,167.639 M201.38,164.854l0.072-0.082h5.954
	c2.19,0,3.606,0.314,3.606,2.867c0,2.608-1.416,2.875-3.606,2.875h-5.954l-0.072-0.082V164.854"/>
<path id="path18_2_" fill="#F3671A" d="M150.194,138.349c-22.677,0-41.352-17.293-44.035-39.243
	c0.446-0.455,0.926-0.916,0.926-0.916h11.95c0,0,0.654,0.54,1.049,0.861c2.911,14.012,15.24,24.531,30.11,24.531
	c14.871,0,27.202-10.52,30.112-24.531c0.395-0.322,1.045-0.861,1.045-0.861h11.95c0,0,0.481,0.461,0.935,0.916
	C191.545,121.056,172.871,138.349,150.194,138.349 M150.194,27.85c23.817-0.028,42.492,19.49,42.492,43.31v5.09h-36.59l-0.933,0.96
	V89.96l0.933,0.939h51.716l0.934-0.939V73.078c0-34.394-25.426-59.982-58.552-59.982c-33.124,0-58.557,25.588-58.557,59.982V89.96
	l0.939,0.939h51.712l0.944-0.939V77.209l-0.944-0.96h-36.587v-5.09C107.701,47.34,126.373,27.821,150.194,27.85"/>
</svg>
