<?xml version="1.0" encoding="utf-8"?>
<!-- Generator: Adobe Illustrator 16.0.0, SVG Export Plug-In . SVG Version: 6.00 Build 0)  -->
<!DOCTYPE svg PUBLIC "-//W3C//DTD SVG 1.1//EN" "http://www.w3.org/Graphics/SVG/1.1/DTD/svg11.dtd">
<svg version="1.1" id="Layer_1" xmlns="http://www.w3.org/2000/svg" xmlns:xlink="http://www.w3.org/1999/xlink" x="0px" y="0px"
	 width="300px" height="200px" viewBox="0 0 300 200" enable-background="new 0 0 300 200" xml:space="preserve">
<g>
	<g>
		<path fill="#FFFFFF" d="M213.051,32.994C195.922,16.876,173.529,8,150.001,8c-23.529,0-45.92,8.876-63.05,24.994
			C69.902,49.037,59.68,70.704,58.169,94.003c-0.134,2.062-0.201,4.092-0.201,6.029c0,4.661,0.353,9.35,1.049,13.938
			c0.07,0.455,0.137,0.908,0.2,1.35l0.057,0.385c0.259,1.785,0.528,3.631,0.936,5.709l11.239,56.291
			c0.789,3.957,2.99,7.586,6.198,10.217S84.843,192,88.878,192h122.243c4.035,0,8.023-1.447,11.23-4.078
			c3.209-2.631,5.408-6.26,6.201-10.217l11.242-56.322c0.406-2.062,0.676-3.922,0.938-5.719c0.082-0.561,0.164-1.131,0.25-1.693
			c0.695-4.582,1.049-9.271,1.049-13.938c0-1.946-0.066-3.976-0.199-6.029C240.32,70.706,230.098,49.038,213.051,32.994z"/>
		<path fill="#00983C" d="M123.91,31.723c-8.941,3.369-17.209,8.488-24.331,15.189c-13.567,12.765-21.7,30.001-22.901,48.53
			c-0.107,1.654-0.162,3.276-0.162,4.81c0,3.715,0.282,7.452,0.837,11.108c0.096,0.633,0.186,1.256,0.277,1.875
			c0.202,1.391,0.397,2.715,0.638,4.029h45.643V31.723z"/>
		<path fill="#E2000B" d="M221.24,117.264c0.227-1.434,0.412-2.703,0.604-4.029c0.092-0.619,0.182-1.242,0.277-1.875
			c0.557-3.65,0.836-7.389,0.836-11.108c0-1.546-0.055-3.164-0.16-4.812c-1.203-18.527-9.336-35.763-22.902-48.528
			c-7.076-6.659-15.287-11.759-24.164-15.128v85.479H221.24z"/>
		<path fill="#FFFFFF" d="M174.145,31.201c-7.756-2.738-15.99-4.169-24.407-3.854c-8.419-0.315-16.653,1.116-24.407,3.854
			c-0.476,0.168-0.948,0.344-1.42,0.522v85.541h51.82V31.784C175.203,31.584,174.676,31.389,174.145,31.201z"/>
		<path d="M239.088,94.401c-1.467-22.602-11.383-43.622-27.922-59.186c-16.617-15.634-38.34-24.246-61.165-24.246
			c-22.828,0-44.549,8.612-61.165,24.246c-16.54,15.564-26.457,36.584-27.922,59.182c-0.129,1.994-0.195,3.964-0.195,5.855
			c0,4.521,0.342,9.072,1.019,13.521c0.091,0.6,0.177,1.189,0.261,1.773c0.256,1.764,0.522,3.588,0.913,5.576l11.338,56.793
			c1.313,6.586,7.369,11.551,14.084,11.551h43.535v-8.922H88.335c-2.454,0-4.854-1.967-5.334-4.375l-11.337-56.795
			c-0.466-2.367-0.747-4.594-1.104-6.943c-0.604-3.971-0.918-8.039-0.918-12.179c0-1.772,0.063-3.531,0.176-5.275
			c2.719-41.921,37.574-75.085,80.183-75.085c42.608,0,77.464,33.164,80.183,75.085c0.113,1.744,0.178,3.503,0.178,5.275
			c0,4.14-0.314,8.208-0.92,12.179c-0.357,2.35-0.639,4.576-1.104,6.943l-11.336,56.795c-0.48,2.408-2.881,4.375-5.336,4.375H175.73
			v8.922h35.936c6.713,0,12.77-4.963,14.086-11.551l11.34-56.814c0.391-1.979,0.656-3.814,0.916-5.59
			c0.082-0.574,0.168-1.154,0.254-1.736c0.678-4.443,1.02-8.994,1.02-13.523C239.281,98.368,239.217,96.4,239.088,94.401z"/>
		<path d="M131.87,131.457v35.746c0.008,3.613,2.948,6.545,6.593,6.555h15.856v6.787l-14.488-0.002v8.924h21.129
			c3.646-0.004,6.588-2.941,6.594-6.553v-51.455c-0.006-3.619-2.947-6.549-6.594-6.559h-22.493
			C134.818,124.91,131.878,127.84,131.87,131.457z M144.937,134.289h9.552v30.084h-9.552V134.289z"/>
		<path d="M117.32,124.9H94.754v9.389h16.157v7.354l-16.033-0.004c-3.588,0.006-6.508,2.848-6.608,6.559l0.002,19.016
			c0.035,3.572,2.875,6.465,6.585,6.545l22.445,0.006c3.637-0.004,6.584-2.912,6.608-6.695v-35.611
			C123.905,127.842,120.962,124.904,117.32,124.9z M110.886,164.373h-9.552v-13.344h9.552V164.373z"/>
		<path d="M208.006,167.211l8.838-42.311h-12.756l-8.188,39.473h-7.105V124.9H175.73v48.916h25.758
			C205.074,173.812,207.264,170.943,208.006,167.211z"/>
	</g>
</g>
</svg>
