<?xml version="1.0" encoding="utf-8"?>
<!-- Generator: Adobe Illustrator 16.0.0, SVG Export Plug-In . SVG Version: 6.00 Build 0)  -->
<!DOCTYPE svg PUBLIC "-//W3C//DTD SVG 1.1//EN" "http://www.w3.org/Graphics/SVG/1.1/DTD/svg11.dtd">
<svg version="1.1" id="Layer_1" xmlns="http://www.w3.org/2000/svg" xmlns:xlink="http://www.w3.org/1999/xlink" x="0px" y="0px"
	 width="300px" height="200px" viewBox="0 0 300 200" enable-background="new 0 0 300 200" xml:space="preserve">
<path fill-rule="evenodd" clip-rule="evenodd" fill="#272623" d="M14.308,89.612c6.126-7.18,18.188-18.857,36.279-35.801
	c3.446-3.254,8.137-4.499,11.774-4.404c3.733,0.096,145.691,0,177.854,0c8.901,0,9.667,2.873,12.922,5.457
	c3.352,2.584,32.546,32.162,34.748,35.13c2.297,2.967,4.115,7.753,4.115,11.104c0,3.255-1.53,9.19-4.403,12.156
	c-3.54,3.542-26.994,26.613-31.874,31.494c-4.787,4.784-8.808,6.604-13.689,6.604c-4.786,0-173.737,0-178.141,0
	c-4.499,0-8.136,0-12.923-3.638c-6.03-4.689-35.13-32.544-38.098-35.894c-2.967-3.351-4.116-7.468-4.116-10.723
	C8.755,95.546,10.287,94.398,14.308,89.612L14.308,89.612z M20.625,101.099c0,5.073,3.35,6.605,6.031,9.571
	c2.584,2.97,23.93,23.263,29.1,27.761c5.551,4.786,7.945,2.968,17.708,3.351c4.021,0.094,155.07-0.383,159.379-0.383
	c4.403,0,9.189,0.767,14.741-3.734c4.787-3.829,22.878-22.686,26.229-25.655c3.351-2.966,7.466-6.41,7.466-10.91
	c0-3.733-5.073-7.754-7.084-10.051c-2.2-2.489-24.696-24.983-27.663-27.281c-2.968-2.394-8.231-4.212-16.177-4.212
	c-28.143,0-78.492-0.288-159.188-0.288c-3.255,0-11.296,0.766-14.359,3.733C53.841,65.969,32.974,85.4,27.9,90.665
	C27.9,90.665,20.625,96.887,20.625,101.099L20.625,101.099z"/>
<path fill-rule="evenodd" clip-rule="evenodd" fill="#272623" d="M166.89,83.964c-3.157,0-5.742,2.872-5.742,6.317v22.207
	c0,3.448,2.585,6.319,5.742,6.319c3.16,0,5.647-2.871,5.647-6.319V90.282C172.537,86.836,170.05,83.964,166.89,83.964L166.89,83.964
	L166.89,83.964z M156.169,72.477h22.018c3.253-0.191,6.317,2.968,7.657,6.127c2.393,5.169,2.681,13.497,2.775,22.208
	c0,9.284-0.956,20.101-2.775,23.547c-1.531,3.161-3.542,5.935-6.987,5.935h-23.453c-3.446,0-5.647-2.681-7.371-5.648
	c-1.914-3.444-2.967-14.454-2.776-23.833c0.192-8.807,0-16.56,3.255-22.399C150.234,75.35,152.628,72.477,156.169,72.477
	L156.169,72.477L156.169,72.477z"/>
<path fill="#272623" d="M259.167,104.633c-2.84,0-5.065-2.267-5.065-5.161c0-2.794,2.272-5.067,5.065-5.067
	c2.847,0,5.163,2.273,5.163,5.067C264.33,102.318,262.014,104.633,259.167,104.633z M259.167,95.347
	c-2.273,0-4.123,1.851-4.123,4.125c0,2.366,1.812,4.218,4.123,4.218c2.327,0,4.22-1.892,4.22-4.218
	C263.387,97.236,261.454,95.347,259.167,95.347z"/>
<path fill-rule="evenodd" clip-rule="evenodd" fill="#272623" d="M257.158,102.344h1.148v-2.106h1.148
	c0.765,0,0.861,0.287,0.861,1.052c0,0.574,0,0.861,0.096,1.054h1.244v-0.095c-0.286-0.098-0.286-0.291-0.286-1.15
	c0-0.958-0.192-1.149-0.672-1.34c0.576-0.192,0.863-0.671,0.863-1.34c0-0.479-0.287-1.531-1.724-1.531h-2.68V102.344
	L257.158,102.344z M258.307,99.28v-1.436h1.34c0.67,0,0.766,0.383,0.766,0.669c0,0.574-0.286,0.766-0.862,0.766H258.307
	L258.307,99.28z"/>
<path fill-rule="evenodd" clip-rule="evenodd" fill="#272623" d="M76.336,72.86h-8.232c0,0-7.563,0-11.296,4.212
	c-3.351,3.829-5.169,9.477-1.819,14.646c3.254,5.169,13.498,16.847,13.498,16.847l6.701,7.562c0,0,0.861,1.343,0.478,2.298
	c-0.478,1.342-8.806,0.863-8.806,0.863l-7.945,0.095c0,0-2.106-0.192-3.255,0.479c-2.01,1.244-1.531,5.647-1.531,5.647
	s0.095,4.021,1.34,4.594c1.244,0.48,3.732,0.575,8.519,0.48c6.509-0.099,17.517-0.192,17.517-0.192s6.988-1.15,9.572-5.746
	c1.819-3.444,3.925-9.38-1.053-15.408c-4.881-6.033-18.856-21.73-18.856-21.73s-0.958-1.149-0.575-2.105
	c0.287-0.862,0.383-1.532,1.532-1.532c1.148,0,12.827,0.192,12.827,0.192s1.915,0,2.968-1.149c1.053-1.148,1.053-2.106,1.053-4.115
	c0-2.011,0.383-4.5-1.149-5.457C86.196,72.381,76.336,72.86,76.336,72.86L76.336,72.86L76.336,72.86z"/>
<path fill-rule="evenodd" clip-rule="evenodd" fill="#272623" d="M235.522,72.477H245c1.724,0,3.159,1.437,3.159,3.16v51.116
	c0,1.722-1.436,3.064-3.159,3.064h-9.478c-1.723,0-3.062-1.343-3.062-3.064V75.637C232.461,73.913,233.8,72.477,235.522,72.477
	L235.522,72.477L235.522,72.477z"/>
<path fill-rule="evenodd" clip-rule="evenodd" fill="#272623" d="M97.586,99.185l-0.095-1.149c0,0.765-0.191-15.029-0.096-21.729
	c0-1.149,0.191-2.488,1.053-2.967c1.723-1.053,6.126-0.671,6.126-0.671s6.126-0.382,7.372,0.862c1.244,1.34,1.244,3.446,1.244,7.084
	c0,4.308,0.095,6.988,0.095,11.104c0,0.192,0.383,0.766,0.575,0.957c0.191,0.192,0.67,0.288,1.053,0.288
	c1.053,0.096,3.925,0.096,3.925,0.096h4.021c0.191,0,0.765-0.192,0.861-0.288c0.191-0.096,0.766-0.574,0.861-1.148
	c0-1.34,0-8.807,0-8.807s-0.382-7.371,0.575-8.806c0.288-0.479,0.575-0.767,1.245-1.149c1.148-0.574,6.03-0.383,6.03-0.383
	s6.223-0.286,6.797,1.053c0.191,0.288,1.052,1.149,0.957,2.681c0,0.478,0.191,24.027,0.191,24.027c0,0.766,0,1.72-0.096,2.392
	c0.096,12.541,0.671,24.89-0.669,26.42c-1.34,1.533-6.701,1.053-6.701,1.053s-6.222,0.382-7.466-0.957
	c-1.245-1.245-0.958-6.605-0.958-10.338c0-4.309,0-6.894,0-11.104c0-0.192-0.383-0.766-0.575-0.958
	c-0.191-0.095-0.669-0.287-1.149-0.287c-0.957-0.098-3.828,0-3.828,0h-4.021c-0.191,0-1.053-0.098-1.244,0.095
	c-0.096,0.098-0.861,0.576-0.861,1.15c0,1.434-0.097,8.806-0.097,8.806s0,7.467-0.096,8.904c0,0.573,0.384,2.966-0.861,4.018
	c-1.148,1.053-6.414,0.861-6.414,0.861s-6.03,0.479-7.371-1.34c-0.479-0.766-0.574-4.116-0.574-5.648c0.096-0.573,0-24.12,0-24.12
	H97.586L97.586,99.185z"/>
<path fill-rule="evenodd" clip-rule="evenodd" fill="#272623" d="M211.784,83.773c-0.573,0-1.244,0.095-1.436,0.382
	c-0.287,0.479-0.479,0.861-0.479,1.245v6.317c0.096,0,0.096,1.532,0.479,1.819c0.287,0.287,0.67,0.478,0.956,0.478l0.862,0.097
	h7.945c1.723,0,3.159,1.435,3.159,3.159v5.647c0,1.724-1.437,3.158-3.159,3.158h-7.371c-0.86,0.097-1.913,0.191-2.201,0.479
	c-0.382,0.385-0.574,0.864-0.67,1.34v8.424c0,0.385,0.096,1.151,0.383,1.339c0.287,0.291,0.671,0.577,0.958,0.577h0.861h14.262
	c1.725,0,3.16,1.435,3.16,3.158v5.554c0,1.721-1.436,3.157-3.16,3.157h-19.24c-0.095,0-0.286,0-0.382,0h-10.051
	c-1.725,0-3.16-1.339-3.16-3.062V75.35c0-1.723,1.436-3.159,3.16-3.159h10.051c0.287,0,0.477,0.095,0.766,0.095h18.091
	c1.724,0,3.16,1.436,3.16,3.159v5.169c0,1.723-1.437,3.159-3.16,3.159H211.784L211.784,83.773z"/>
</svg>
