<?xml version="1.0" encoding="utf-8"?>
<!-- Generator: Adobe Illustrator 16.0.0, SVG Export Plug-In . SVG Version: 6.00 Build 0)  -->
<!DOCTYPE svg PUBLIC "-//W3C//DTD SVG 1.1//EN" "http://www.w3.org/Graphics/SVG/1.1/DTD/svg11.dtd">
<svg version="1.1" id="Layer_1" xmlns="http://www.w3.org/2000/svg" xmlns:xlink="http://www.w3.org/1999/xlink" x="0px" y="0px"
	 width="300px" height="200px" viewBox="0 0 300 200" enable-background="new 0 0 300 200" xml:space="preserve">
<path d="M6.534,131.469H0.795c-0.44,0-0.795-0.354-0.795-0.794V69.384c0-0.439,0.354-0.794,0.795-0.794h5.739
	c0.439,0,0.795,0.355,0.795,0.794v61.291C7.329,131.114,6.974,131.469,6.534,131.469 M40.958,131.469
	c0.293,0,0.568-0.157,0.704-0.42c0.14-0.263,0.119-0.581-0.047-0.821L20.729,99.74L40.4,69.822c0.16-0.246,0.174-0.557,0.033-0.817
	c-0.136-0.254-0.409-0.415-0.702-0.415h-6.773c-0.266,0-0.521,0.134-0.668,0.355L14.417,95.971l-5.248,3.093
	c-0.245,0.145-0.393,0.407-0.393,0.688c0,0.28,0.148,0.542,0.393,0.687l5.256,3.101l18.913,27.583
	c0.148,0.222,0.395,0.347,0.658,0.347H40.958 M91.436,131.469c0.439,0,0.794-0.355,0.794-0.795v-60.88
	c0-0.439-0.355-0.793-0.794-0.793h-5.481c-0.439,0-0.799,0.354-0.799,0.793v52.595L55.712,69.41C55.574,69.154,55.311,69,55.019,69
	h-8.419c-0.44,0-0.795,0.354-0.795,0.793v60.88c0,0.439,0.354,0.795,0.795,0.795h5.479c0.44,0,0.801-0.355,0.801-0.795V78.162
	l29.443,52.898c0.138,0.256,0.403,0.409,0.693,0.409H91.436 M138.753,113.304c0,8.689-4.5,13.441-17.028,13.441
	c-12.534,0-17.035-4.752-17.035-13.441v-26.14c0-8.685,4.501-13.44,17.035-13.44c12.529,0,17.028,4.756,17.028,13.44V113.304
	L138.753,113.304 M121.725,132.314c17.32,0,23.603-7.858,23.603-18.524V86.644c0-10.666-6.283-18.531-23.603-18.531
	c-17.327,0-23.61,7.865-23.61,18.531v27.146C98.115,124.456,104.398,132.314,121.725,132.314 M195.734,131.469
	c0.296,0,0.575-0.159,0.705-0.434c0.141-0.264,0.116-0.573-0.057-0.823l-21.505-30.434l20.825-29.526
	c0.172-0.24,0.196-0.56,0.057-0.824c-0.141-0.263-0.41-0.427-0.706-0.427h-6.268c-0.261,0-0.501,0.123-0.649,0.338l-17.365,24.756
	l-17.364-24.756C153.259,69.124,153.02,69,152.758,69h-6.261c-0.295,0-0.567,0.162-0.706,0.424c-0.14,0.256-0.123,0.575,0.045,0.814
	l20.099,29.539l-20.784,30.451c-0.164,0.24-0.18,0.559-0.043,0.819c0.135,0.264,0.408,0.421,0.703,0.421h6.267
	c0.267,0,0.521-0.13,0.668-0.356l17.315-26.316l18.76,26.342c0.148,0.209,0.388,0.331,0.646,0.331H195.734 M299.47,122.767
	c0.092,0,0.183-0.025,0.268-0.068c0.167-0.103,0.263-0.276,0.263-0.462V77.705c0-0.189-0.096-0.363-0.262-0.457
	c-0.156-0.097-0.357-0.1-0.526-0.011l-5.121,2.801c-0.162,0.096-0.272,0.274-0.272,0.466v38.867c0,0.197,0.109,0.374,0.27,0.466
	l5.121,2.863C299.293,122.742,299.381,122.767,299.47,122.767 M259.754,147.027c0.101,0,0.191-0.025,0.264-0.066l38.583-22.295
	c0.168-0.093,0.265-0.269,0.265-0.463c0-0.188-0.099-0.36-0.266-0.464l-5.124-2.914c-0.157-0.092-0.359-0.092-0.517,0
	l-33.469,19.254c-0.159,0.092-0.267,0.268-0.267,0.463v5.956c0,0.194,0.107,0.37,0.266,0.463
	C259.572,147.002,259.663,147.027,259.754,147.027 M257.494,147.027c0.091,0,0.181-0.025,0.265-0.066
	c0.169-0.093,0.266-0.269,0.266-0.463v-5.897c0-0.194-0.097-0.369-0.266-0.463l-33.518-19.371c-0.17-0.103-0.362-0.103-0.532,0
	l-5.12,2.985c-0.158,0.092-0.263,0.268-0.263,0.451c0,0.194,0.105,0.37,0.264,0.463l38.639,22.295
	C257.312,147.002,257.404,147.027,257.494,147.027 M293.034,79.188c0.09,0,0.178-0.021,0.261-0.064l5.24-2.924
	c0.17-0.092,0.268-0.268,0.27-0.459c0.001-0.191-0.096-0.367-0.266-0.465L260.019,53.04c-0.158-0.092-0.361-0.092-0.528,0
	c-0.159,0.098-0.267,0.273-0.267,0.463v5.962c0,0.19,0.107,0.365,0.267,0.457l33.279,19.194
	C292.855,79.167,292.943,79.188,293.034,79.188 M217.729,122.767c0.092,0,0.183-0.025,0.267-0.068l5.182-3.043
	c0.158-0.092,0.263-0.268,0.263-0.461V80.623c0-0.192-0.108-0.369-0.28-0.461l-5.182-2.864c-0.157-0.09-0.36-0.088-0.526,0.01
	c-0.157,0.093-0.252,0.268-0.252,0.457v44.472c0,0.186,0.097,0.361,0.266,0.463C217.538,122.741,217.639,122.767,217.729,122.767
	 M224.035,79.188c0.09,0,0.181-0.021,0.264-0.072l33.459-19.192c0.169-0.093,0.267-0.269,0.267-0.458v-5.962
	c0-0.19-0.097-0.366-0.266-0.463c-0.157-0.092-0.36-0.092-0.528,0l-38.64,22.237c-0.16,0.098-0.267,0.273-0.266,0.464
	c0,0.191,0.107,0.367,0.268,0.459l5.181,2.923C223.856,79.167,223.945,79.188,224.035,79.188 M281.253,117.083
	c0.167,0,0.318-0.07,0.415-0.204c0.106-0.125,0.141-0.296,0.104-0.45l-1.398-5.623c-0.06-0.236-0.27-0.404-0.521-0.404h-42.222
	c-0.242,0-0.451,0.168-0.511,0.404l-1.397,5.623c-0.036,0.154-0.002,0.325,0.095,0.45c0.105,0.134,0.258,0.204,0.425,0.204H281.253
	 M259.548,106.799c0.377,0,0.726-0.2,0.922-0.523l2.256-3.819l20.463-14.04c0.29-0.195,0.464-0.52,0.464-0.872v-5.191
	c0-0.39-0.214-0.753-0.562-0.939c-0.351-0.181-0.778-0.16-1.103,0.066L259.54,96.863l-22.03-14.483
	c-0.325-0.216-0.741-0.233-1.086-0.046c-0.347,0.188-0.558,0.543-0.558,0.935v5.046c0,0.359,0.177,0.688,0.473,0.888l20.044,13.259
	l2.252,3.813C258.832,106.599,259.181,106.799,259.548,106.799"/>
</svg>
