<?xml version="1.0" encoding="utf-8"?>
<!-- Generator: Adobe Illustrator 16.0.0, SVG Export Plug-In . SVG Version: 6.00 Build 0)  -->
<!DOCTYPE svg PUBLIC "-//W3C//DTD SVG 1.1//EN" "http://www.w3.org/Graphics/SVG/1.1/DTD/svg11.dtd">
<svg version="1.1" id="Layer_1" xmlns="http://www.w3.org/2000/svg" xmlns:xlink="http://www.w3.org/1999/xlink" x="0px" y="0px"
	 width="300px" height="200px" viewBox="0 0 300 200" enable-background="new 0 0 300 200" xml:space="preserve">
<path fill="#181716" d="M256.299,59.876c-26.861-8.301-63.523-12.872-103.234-12.872c-40.063,0-77.788,4.563-106.226,12.85
	C16.197,68.783,0,80.914,0,94.934c0,20.449,34.028,34.714,78.411,42.095c2.453,0.88,4.994,1.754,7.647,2.618
	c24.488,7.985,52.427,13.35,63.158,13.35c10.977,0,39.357-5.126,64.108-12.755c2.342-0.722,4.6-1.451,6.789-2.187
	c13.322-2.065,25.528-4.771,36.186-8.063C292.418,118.831,300,104.767,300,94.934C300,85.101,292.418,71.038,256.299,59.876z"/>
<path fill="#FFFFFF" d="M295.303,94.934c0-23.876-60.297-43.231-142.238-43.231c-81.942,0-148.367,19.355-148.367,43.231
	c0,16.112,30.252,30.164,75.105,37.6c26.773,9.664,58.622,15.765,69.414,15.765c10.675,0,42.581-5.63,69.731-14.809
	C265.336,126.35,295.303,111.766,295.303,94.934z"/>
<path d="M25.314,95.161c0-22.516,55.835-40.767,124.713-40.767c68.877,0,124.717,18.251,124.717,40.767
	c0,22.515-55.84,40.77-124.717,40.77C81.15,135.931,25.314,117.676,25.314,95.161"/>
<path fill="#E2000B" d="M261.83,100.93c-2.458,24.957-93.072,44.824-112.614,44.824c-19.54,0-108.133-19.996-110.594-44.953
	c6.856,13.65,93.814,23.778,110.594,23.778C165.994,124.579,254.975,114.579,261.83,100.93"/>
<path fill="#FFFFFF" d="M116.548,116.46v-6.203h1.901v2.212h4.009v-2.212h1.902v6.203h-1.902v-2.347h-4.009v2.347H116.548
	 M126.797,116.46h6.891v-1.494h-4.99v-0.991h4.625v-1.285h-4.625v-0.997h4.883v-1.436h-6.784V116.46 M135.994,116.46h6.176v-1.597
	h-4.272v-4.606h-1.904V116.46 M144.133,116.46h1.848v-4.457H146l2.491,4.457h1.419l2.494-4.457h0.017v4.457h1.848v-6.203h-2.918
	l-2.148,3.99l-2.153-3.99h-2.917V116.46 M156.711,116.46h6.895v-1.494h-4.992v-0.991h4.622v-1.285h-4.622v-0.997h4.879v-1.436
	h-6.781V116.46 M165.457,111.799h2.674v4.661h1.902v-4.661h2.667v-1.542h-7.243V111.799 M174.574,114.858
	c0,1.345,0.692,1.671,2.421,1.671h2.304c2.528,0,3.097-0.278,3.097-1.944c0-1.811-0.687-1.992-3.649-1.981
	c-2.028,0.011-2.26-0.011-2.26-0.547c0-0.332,0.29-0.482,0.718-0.482h2.105c0.879,0,0.927,0.193,0.927,0.644h1.901v-0.199
	c0-1.081-0.209-1.831-2.399-1.831h-2.657c-2.399,0-2.496,0.867-2.496,1.993c0,1.52,0.321,1.863,3.183,1.863
	c2.447,0,2.672,0.032,2.672,0.572c0,0.478-0.412,0.525-0.814,0.525h-2.324c-0.552,0-0.814-0.054-0.824-0.712h-1.902V114.858
	 M65.986,105.565l4.226-6.687H55.733V80.608h25.591l3.894-6.685H52.681c-1.591,0-2.96,0.46-4.104,1.382
	c-1.149,0.921-1.722,2.022-1.722,3.297v22.283c0,1.277,0.573,2.376,1.722,3.298c1.143,0.92,2.512,1.382,4.104,1.382H65.986
	 M119.314,91.302h16.085v7.576h-16.085V91.302z M119.314,80.608h16.085v4.012h-16.085V80.608z M144.275,92.417
	c0-1.039-0.391-1.961-1.165-2.761c-0.742-0.833-1.701-1.398-2.887-1.693c1.187-0.3,2.146-0.849,2.887-1.653
	c0.774-0.83,1.165-1.765,1.165-2.804v-4.903c0-1.278-0.573-2.376-1.719-3.297c-1.146-0.921-2.515-1.382-4.103-1.382h-28.012v31.642
	h28.012c1.587,0,2.956-0.462,4.103-1.382c1.146-0.922,1.719-2.021,1.719-3.298V92.417z M178.309,105.565v-6.687h-22.191v-7.574
	h17.59l4.602-6.685h-22.191v-4.012h22.191v-6.685h-25.24c-1.591,0-2.96,0.46-4.106,1.382s-1.719,2.022-1.719,3.297v22.283
	c0,1.277,0.573,2.376,1.719,3.298c1.146,0.92,2.516,1.382,4.106,1.382H178.309 M189.958,80.608h16.08v4.012h-16.08V80.608z
	 M214.913,92.419c0-1.039-0.385-1.96-1.161-2.764c-0.745-0.833-1.703-1.398-2.888-1.693c1.185-0.297,2.143-0.849,2.888-1.65
	c0.776-0.833,1.161-1.768,1.161-2.807v-4.903c0-1.275-0.572-2.376-1.719-3.297c-1.146-0.921-2.512-1.382-4.103-1.382h-28.009v31.642
	h8.875V91.305h16.08v14.261h8.875V92.419z M251.525,105.565V84.62h-19.97l-4.21,6.685h15.304v7.574h-16.086V80.608h21.164
	l4.161-6.685h-28.378c-1.591,0-2.957,0.46-4.104,1.382s-1.719,2.022-1.719,3.297v22.283c0,1.277,0.572,2.376,1.719,3.298
	c1.146,0.92,2.513,1.382,4.104,1.382H251.525 M107.693,105.565V78.603c0-1.275-0.57-2.376-1.719-3.297
	c-1.146-0.921-2.515-1.382-4.103-1.382h-13.19l-3.988,6.685h13.394v4.012H82.301L69.81,105.565h9.516l8.828-14.261H98.82v14.261
	H107.693"/>
</svg>
