<?xml version="1.0" encoding="utf-8"?>
<!-- Generator: Adobe Illustrator 16.0.0, SVG Export Plug-In . SVG Version: 6.00 Build 0)  -->
<!DOCTYPE svg PUBLIC "-//W3C//DTD SVG 1.1//EN" "http://www.w3.org/Graphics/SVG/1.1/DTD/svg11.dtd">
<svg version="1.1" id="Layer_1" xmlns="http://www.w3.org/2000/svg" xmlns:xlink="http://www.w3.org/1999/xlink" x="0px" y="0px"
	 width="300px" height="200px" viewBox="0 0 300 200" enable-background="new 0 0 300 200" xml:space="preserve">
<path fill="#11479F" d="M109.254,94.802c13.648-29.974,34.752-53.159,69.149-64.245c-7.138,10.16-13.089,21.091-17.46,33.05
	c-0.456,1.287-0.311,2.355,0.347,3.374l2.938,3.709c1.281,1.704,2.002,1.576,3.978,1.516l27.313-1.349
	c-14.353,2.83-28.007,6.493-40.281,11.804c-1.21,0.509-2.018,0.734-2.937-0.337l-5.922-6.955c-0.861-0.982-1.546-1.909-0.994-3.331
	l2.938-7.418c2.379-5.457,8.542-11.173,18.326-19.392c-13.197,7.761-25.912,19.896-36.65,39.121L109.254,94.802z M150.001,17.237
	c-16.258-0.021-31.02,1.314-45.796,3.71c-3.068,0.513-4.49,0.928-4.801,6.152c-0.771,25.21,2.609,51.991,9.603,79.336
	c1.375,4.691,1.695,5.432,5.958,5.985c1.402,0.121,2.807,0.236,4.213,0.347c15.176-11.858,35.146-22.511,64.587-30.782
	c-22.92,7.926-42.289,18.04-56.472,31.348c7.521,0.458,15.086,0.722,22.709,0.69c11.8,0.048,23.472-0.606,35.036-1.604
	c4.263-0.554,4.584-1.294,5.957-5.985c6.995-27.345,10.375-54.126,9.603-79.336c-0.31-5.225-1.731-5.639-4.8-6.152
	c-5.516-0.896-11.029-1.642-16.617-2.227l-0.004,0.002c-31.066,9.271-53.316,28.531-70.095,53.989
	c13.06-24.565,33.178-42.49,59.144-54.913h0.004C162.319,17.422,156.271,17.228,150.001,17.237L150.001,17.237z"/>
<path fill="#11479F" d="M257.61,137.688l18.768-15.147l21.225-0.135l-26.324,22.639l26.944,21.704l-21.224-0.007l-15.092-11.71
	c-1.443-0.955-2.969-1.401-4.297,0v11.691h-17.36V151.7L257.61,137.688z M240.25,122.614v27.941l10.471-8.363
	c3.8-2.799,6.591-6.695,6.612-10.259v-7.466c0.026-0.88-0.261-1.854-1.377-1.854H240.25L240.25,122.614z M238.237,166.784
	l-18.595-0.126l-5.597-7.34c-3.942-5.092-6.797-7.522-14.012-7.522h-3.329v15.008h-31.153l-4.058-6.578
	c-0.611-1.351-1.921-1.982-3.928-1.898h-19.372c-2.008-0.084-3.316,0.548-3.927,1.898l-4.058,6.578H99.972v-16.571h-19.11
	c-1.091,0.041-1.942,1.161-1.963,2.404v14.167H62.535v-44.27l16.494,0.128v17.074h19.11c1.091-0.042,1.942-1.16,1.963-2.404v-14.718
	h16.363v38.907l24.086-38.859h14.661l24.607,39.704v-39.752h38.484c12.213,0,19.896,7.296,19.896,14.591
	c0,5.73-4.741,11.459-12.693,13.654L238.237,166.784z M153.771,148.084l-5.89-9.108l-5.891,9.108H153.771z M219.811,137.205
	c0.031-2.008-2.736-3.958-5.498-3.985h-17.607v8.604h17.607C217.074,141.798,219.842,139.216,219.811,137.205z M15.734,122.765
	C7.12,123.187-0.023,128.376,0,137.169c-0.051,7.594,8.587,13.149,17.699,13.138h21.276c2.312-0.023,3.937,1.114,3.959,2.963
	c0.002,1.664-1.767,2.948-4.254,2.964l-16.325-0.022c-4.302,0.007-4.539-3.473-6.285-3.783H0.232
	c-1.412,6.338,6.319,14.377,17.278,14.377l27,0.044c8.614-0.423,15.822-5.549,15.799-14.337c0.051-7.597-8.586-12.836-17.698-12.823
	l-19.537-0.124c-2.313,0.02-3.971-1.243-3.993-3.092c-0.003-1.664,1.831-2.696,4.318-2.712l12.98-0.029
	c4.303-0.008,4.605,3.92,6.351,4.25h17.346c1.413-6.708-6.318-15.215-17.278-15.217H15.734L15.734,122.765z"/>
<path fill="#11479F" d="M288.503,178.81l1.798-0.13c0.084,0.586,0.283,1.068,0.597,1.448c0.312,0.373,0.798,0.682,1.453,0.914
	c0.658,0.232,1.399,0.349,2.221,0.349c0.729,0,1.374-0.088,1.933-0.265c0.56-0.178,0.974-0.42,1.247-0.727
	c0.272-0.309,0.411-0.642,0.411-1.001c0-0.367-0.132-0.684-0.395-0.958c-0.264-0.273-0.697-0.503-1.304-0.689
	c-0.387-0.119-1.246-0.31-2.577-0.569c-1.329-0.258-2.26-0.501-2.791-0.73c-0.69-0.293-1.202-0.657-1.539-1.092
	c-0.339-0.433-0.508-0.92-0.508-1.456c0-0.593,0.207-1.146,0.623-1.657c0.414-0.515,1.017-0.903,1.814-1.171
	c0.795-0.267,1.68-0.399,2.653-0.399c1.072,0,2.018,0.139,2.836,0.417c0.817,0.279,1.448,0.691,1.89,1.235
	c0.441,0.543,0.676,1.156,0.712,1.842l-1.841,0.115c-0.096-0.738-0.431-1.295-1-1.672c-0.568-0.379-1.41-0.565-2.521-0.565
	c-1.159,0-2.005,0.172-2.533,0.515c-0.529,0.344-0.795,0.755-0.795,1.241c0,0.42,0.189,0.764,0.562,1.036
	c0.37,0.27,1.331,0.551,2.885,0.833c1.557,0.285,2.624,0.535,3.205,0.746c0.838,0.312,1.46,0.708,1.862,1.19
	c0.401,0.479,0.599,1.032,0.599,1.656s-0.22,1.208-0.659,1.758c-0.441,0.549-1.072,0.977-1.897,1.283
	c-0.824,0.304-1.752,0.456-2.785,0.456c-1.307,0-2.401-0.156-3.281-0.462c-0.888-0.308-1.579-0.771-2.079-1.391
	C288.793,180.292,288.529,179.59,288.503,178.81L288.503,178.81z M280.979,182.567v-10.323h4.771v-1.375h-11.456v1.375h4.768v10.323
	H280.979z M261.691,182.567h9.164v-1.373h-7.981v-3.983h7.981v-1.374h-7.981v-3.593h7.981v-1.375h-9.164
	c-0.405,0-0.737,0.332-0.737,0.739v10.222C260.954,182.235,261.286,182.567,261.691,182.567z M241.617,182.567h1.839v-9.966
	l3.986,9.513c0.117,0.28,0.376,0.453,0.68,0.453h0.75c0.301,0,0.557-0.169,0.676-0.444l4.032-9.34v9.784h1.839v-11.698h-2.563
	l-3.481,8.135c-0.351,0.826-0.61,1.454-0.774,1.879c-0.146-0.386-0.375-0.963-0.69-1.732l-3.423-8.281h-2.869V182.567
	L241.617,182.567z M228.403,182.567h8.297v-1.373h-7.113v-10.325h-1.92v10.961C227.667,182.235,227.998,182.567,228.403,182.567z
	 M214.303,182.567h8.55v-1.373h-7.368v-3.983h7.368v-1.374h-7.368v-3.593h7.368v-1.375h-8.55c-0.407,0-0.737,0.332-0.737,0.739
	v10.222C213.565,182.235,213.896,182.567,214.303,182.567z M198.918,182.567V177.8c0-0.407,0.331-0.737,0.737-0.737h6.739v5.505
	h1.92v-11.698h-1.92v4.086c0,0.402-0.332,0.735-0.736,0.735h-6.74v-4.821h-1.919v11.698H198.918z"/>
</svg>
