<?xml version="1.0" encoding="utf-8"?>
<!-- Generator: Adobe Illustrator 16.0.0, SVG Export Plug-In . SVG Version: 6.00 Build 0)  -->
<!DOCTYPE svg PUBLIC "-//W3C//DTD SVG 1.1//EN" "http://www.w3.org/Graphics/SVG/1.1/DTD/svg11.dtd">
<svg version="1.1" id="Layer_1" xmlns="http://www.w3.org/2000/svg" xmlns:xlink="http://www.w3.org/1999/xlink" x="0px" y="0px"
	 width="300px" height="200px" viewBox="0 0 300 200" enable-background="new 0 0 300 200" xml:space="preserve">
<g>
	<path d="M110.395,189.657h39.228l10.469-11.395h-39.228L110.395,189.657 M150.979,182.39l-3.022,3.285
		c-14.114,0-23.647,0.001-28.599,0.004l3.02-3.286C137.387,182.393,146.92,182.393,150.979,182.39z M226.669,167.995
		c-11.379,0-19.163,3.298-23.506,7.87c-4.343,4.573-8.533,9.368-8.533,9.368h-12.429l12.802-17.163h-22.161l-1.347,1.799
		c0,0-3.367-1.874-8.382-1.874H103.52l-12.727,9.669c0,0,1.124-9.594-11.903-9.744c-7.636-0.089-10.557,1.272-15.871,4.121
		c-5.316,2.85-9.657,5.697-9.657,5.697l4.64-9.743H36.218c0,0-9.553,21.44-9.583,21.511c-3.145,7.721,5.091,10.643,10.557,10.419
		c5.385-0.222,10.556-0.524,15.571-3.372c4.458-2.533,12.728-7.422,12.728-7.422s-0.016,0.059-0.037,0.163
		C65.185,190.651,63.854,200,78.366,200c10.93,0,17.144-5.696,17.144-5.696s1.796,5.621,10.256,5.621h37.131
		c9.51,0,16.917-4.048,16.917-4.048s4.196,3.973,10.708,3.973h35.335l7.489-8.395h38.252l8.685-9.819h1.646l12.128-13.641H226.669
		 M260.133,177.588h-39.827l-2.695,3.146h38.18l-5.838,6.6h-38.327l-7.49,8.543h-32.192c-9.279,0-11.228-5.245-11.228-5.245
		s-6.585,5.245-18.565,5.245h-36.533c-5.604,0-7.714-3.371-6.332-6.583h0.001c1.161-1.628,4.683-6.908,4.683-6.908
		s-9.101,7.199-9.283,7.346c-6.587,5.245-10.481,6.146-17.068,6.146c-5.092,0-9.284-1.8-8.085-6.146
		c0.041-0.146,3.144-10.494,3.144-10.494s-8.683,5.824-15.422,10.057c-2.241,1.416-4.27,2.649-5.689,3.435
		c-5.691,3.148-10.331,3.148-15.272,3.148s-7.528-1.732-5.54-5.997c0.084-0.183,8.235-17.839,8.235-17.839h12.726l-7.486,16.191
		c0,0,14.076-8.847,21.111-13.044c7.037-4.197,23.506-5.245,21.261,3c-2.246,8.245-2.846,9.744-2.846,9.744l21.112-15.892h13.027
		l-3.594,2.55c0,0,3.893-2.55,11.827-2.55h37.434c7.188,0,8.381,4.199,8.381,4.199l2.997-4.199h12.128l-12.879,17.241H196.5
		c0,0,5.389-5.997,8.534-9.595c3.145-3.6,10.033-7.646,21.411-7.646h38.628L260.133,177.588z"/>
	<path d="M119.672,69.351c1.059,1.7,1.68,2.77,2.372,3.79c3.95,5.833,9.397,9.974,15.357,13.532
		c0.811,0.483,1.861,0.772,1.866,1.995c0.011,3.21,0.004,6.419,0.004,9.749c-1.368-0.46-1.044-1.372-1.206-2.07
		c-0.735-3.167-1.688-5.958-5.61-6.636c-3.395-0.588-6.7-1.704-10.02-2.672c-1.353-0.393-2.821-0.708-2.788-2.728
		C119.725,79.588,119.672,74.866,119.672,69.351 M180.327,69.351c-1.061,1.7-1.679,2.77-2.369,3.79
		c-3.953,5.833-9.399,9.974-15.357,13.532c-0.814,0.483-1.864,0.772-1.869,1.995c-0.01,3.21-0.001,6.419-0.001,9.749
		c1.368-0.46,1.042-1.372,1.204-2.07c0.732-3.167,1.688-5.958,5.612-6.636c3.393-0.588,6.7-1.704,10.02-2.672
		c1.349-0.393,2.819-0.708,2.786-2.728C180.275,79.588,180.327,74.866,180.327,69.351 M94.562,0l48.764,37.977L150,37.349
		l6.674,0.628L205.438,0l-8.439,60.006l7.287,30.755l-21.825,17.819l-10.447,32.883l-22.012,12.421l-0.003-0.015v0.015
		l-22.012-12.421l-10.448-32.883L95.712,90.761l7.29-30.755L94.562,0z M125.41,103.233l0.952,3.14l9.261,28.852l14.375,8.151v0.013
		l0.003-0.013l14.376-8.151l9.26-28.852l0.952-3.14l19.544-15.955l-6.358-26.835l5.549-39.448l-33.93,26.423L150,46.536
		l-9.396,0.882l-33.929-26.423l5.551,39.448l-6.361,26.835L125.41,103.233z"/>
</g>
</svg>
