<?xml version="1.0" encoding="utf-8"?>
<!-- Generator: Adobe Illustrator 16.0.0, SVG Export Plug-In . SVG Version: 6.00 Build 0)  -->
<!DOCTYPE svg PUBLIC "-//W3C//DTD SVG 1.1//EN" "http://www.w3.org/Graphics/SVG/1.1/DTD/svg11.dtd">
<svg version="1.1" id="Layer_1" xmlns="http://www.w3.org/2000/svg" xmlns:xlink="http://www.w3.org/1999/xlink" x="0px" y="0px"
	 width="300px" height="200px" viewBox="0 0 300 200" enable-background="new 0 0 300 200" xml:space="preserve">
<g>
	<path fill="#FFFFFF" d="M17.653,62.24C6.136,73.568,0,86.596,0,100s6.136,26.432,17.652,37.76
		C43.235,162.87,93.927,178.444,150,178.444c39.741,0,76.84-7.551,104.499-21.333C283.855,142.479,300,122.277,300,100
		c0-13.404-6.136-26.432-17.653-37.76C256.765,37.13,205.979,21.555,150,21.555C93.927,21.555,43.235,37.13,17.653,62.24z"/>
	<path d="M292.069,100c0,39.647-62.396,70.61-142.069,70.61c-53.997,0-102.612-14.727-126.778-38.421
		C13.216,122.373,7.93,111.233,7.93,99.906c0-11.234,5.286-22.373,15.292-32.285C47.389,43.927,95.909,29.201,150,29.201
		c53.995,0,102.611,14.726,126.776,38.42C286.689,77.533,292.069,88.672,292.069,100L292.069,100z M150,34.771
		C75.331,34.771,14.916,63.94,14.916,100c0,36.06,60.509,65.229,135.085,65.229c74.667,0,135.084-29.17,135.084-65.229
		C285.085,63.94,224.575,34.771,150,34.771z"/>
	<path fill="#FF0000" d="M183.796,110.855l19.539,0.095v13.688h-41.063V69.132h21.524V110.855L183.796,110.855z M229.673,110.855
		l19.539,0.095v13.688h-41.063V69.132h21.524V110.855L229.673,110.855z M112.996,69.132h43.14v14.631h-21.617v8.118h21.617v10.101
		h-21.617v8.968h21.617v13.782h-43.14V69.132z M104.783,100.755c-1.982-1.981-6.419-4.436-6.419-4.436s3.587-1.605,5.759-3.681
		c2.171-2.078,3.209-4.815,3.209-9.912c0-4.531-1.982-8.874-6.136-11.706c-3.209-2.077-8.968-2.077-14.16-2.077H53.902v55.506
		h40.592c0,0,6.136-0.094,8.874-1.794c2.454-1.511,3.682-2.926,4.342-5.097c1.039-3.587,1.227-6.042,0.85-9.818
		C108.182,104.625,106.01,101.982,104.783,100.755L104.783,100.755z M76.747,80.932h6.136c0,0,5.381,0.189,5.381,5.381
		c0,5.569-5.381,5.569-5.381,5.569h-6.23v-10.95H76.747z M82.977,113.027h-6.23v-10.855h6.136c0,0,5.475-0.284,5.475,5.191
		C88.357,113.688,82.977,113.027,82.977,113.027L82.977,113.027z"/>
	<path d="M255.442,123.223h-0.565v-3.493h1.321c0.849,0,1.322,0.282,1.322,1.038c0,0.661-0.378,0.85-0.944,0.944l1.039,1.511h-0.661
		l-0.945-1.511h-0.566V123.223L255.442,123.223z M256.104,121.24c0.473,0,0.851,0,0.851-0.567c0-0.377-0.378-0.472-0.756-0.472
		h-0.756v1.039H256.104z M256.198,124.732c-1.888,0-3.305-1.416-3.305-3.304c0-1.982,1.51-3.21,3.305-3.21
		c1.7,0,3.21,1.321,3.21,3.21C259.408,123.41,257.898,124.732,256.198,124.732z M256.198,118.785c-1.417,0-2.548,1.133-2.548,2.644
		c0,1.51,0.943,2.737,2.548,2.737c1.417,0,2.549-1.133,2.549-2.737S257.615,118.785,256.198,118.785z M77.124,132.473h5.853v3.683
		h5.475v-3.683h5.853v10.573h-5.853v-4.153h-5.475v4.153h-5.853V132.473z M99.874,132.473h15.859v2.738h-9.912v1.321h9.062v2.549
		h-9.062v1.321h10.195v2.738H99.874V132.473z M121.208,132.473h5.853v7.836h8.496v2.737h-14.348V132.473z M140.466,132.473h8.401
		l2.738,6.23h0.095l2.737-6.23h8.401v10.573h-5.57v-6.797h-0.093l-3.305,6.797h-4.437l-3.303-6.797h-0.095v6.797h-5.569V132.473
		L140.466,132.473z M168.22,132.473h15.858v2.738h-9.913v1.321h9.062v2.549h-9.062v1.321h10.196v2.738H168.22V132.473z
		 M193.895,135.211h-5.38v-2.738h16.614v2.738h-5.382v7.835h-5.853V135.211L193.895,135.211z M214.475,139.554
		c0,0.282,0.093,0.472,0.188,0.66c0.474,0.661,1.7,0.755,2.832,0.755c0.945,0,2.455-0.188,2.455-0.943
		c0-0.567-0.851-0.661-4.153-1.228c-3.021-0.473-6.514-0.944-6.514-3.114c0-2.455,3.775-3.494,7.741-3.494
		c4.152,0,7.835,0.851,8.023,3.494h-5.57c0.095-0.379-0.188-0.661-0.661-0.851c-0.471-0.188-1.132-0.282-1.697-0.282
		c-0.852,0-2.078,0.094-2.078,0.754c0.096,0.755,2.832,0.944,5.57,1.322c2.736,0.377,5.38,1.133,5.38,3.021
		c0,2.737-4.626,3.681-8.872,3.681c-2.173,0-8.401-0.472-8.401-3.774H214.475L214.475,139.554z"/>
</g>
</svg>
