<?xml version="1.0" encoding="utf-8"?>
<!-- Generator: Adobe Illustrator 16.0.0, SVG Export Plug-In . SVG Version: 6.00 Build 0)  -->
<!DOCTYPE svg PUBLIC "-//W3C//DTD SVG 1.1//EN" "http://www.w3.org/Graphics/SVG/1.1/DTD/svg11.dtd">
<svg version="1.1" id="Layer_1" xmlns="http://www.w3.org/2000/svg" xmlns:xlink="http://www.w3.org/1999/xlink" x="0px" y="0px"
	 width="300px" height="200px" viewBox="0 0 300 200" enable-background="new 0 0 300 200" xml:space="preserve">
<rect fill-rule="evenodd" clip-rule="evenodd" fill="#9A1818" width="300" height="200"/>
<path fill="#FFFFFF" d="M61.172,132.156c-0.319-1.349,3.727-5.473,8.804-7.379c5.079-1.903,18.565-6.585,18.565-6.585
	s-8.568,9.046-14.994,11.743C67.121,132.633,61.489,133.503,61.172,132.156 M291.455,48.73l-120.443,57.641l-0.271,39.422
	l-57.094-16.312c0,0-32.897,15.757-46.763,20.661c-13.865,4.909-29.634,6.799-35.616,0c-5.982-6.796-1.902-16.311,2.991-21.478
	c4.895-5.165,8.701-7.888,8.701-7.888s8.444-15.465,25.827-25.281c23.111-13.052,52.201-14.955,52.201-14.955l44.588-38.29
	l3.263,28.773L291.455,48.73z M229.468,68.578l-68.242,12.235l-2.446-21.206l-35.073,29.906c0,0-9.519-1.652-35.615,6.527
	C67.907,102.364,57.6,114.62,57.6,114.62l27.499-5.259c0,0,3.243-4.187,9.631-6.32c5.237-1.747,9.564-2.467,9.838-0.358
	c0.274,2.11-4.841,5.116-11.855,6.95c-6.253,1.635-23.83,6.056-37.968,13.4c-14.137,7.339-19.079,17.015-17.719,20.548
	c1.36,3.535,10.556,4.933,25.508-0.504c14.954-5.438,50.026-22.3,50.026-22.3l49.483,13.869l0.543-33.985L229.468,68.578z"/>
</svg>
