<?xml version="1.0" encoding="utf-8"?>
<!-- Generator: Adobe Illustrator 16.0.0, SVG Export Plug-In . SVG Version: 6.00 Build 0)  -->
<!DOCTYPE svg PUBLIC "-//W3C//DTD SVG 1.1//EN" "http://www.w3.org/Graphics/SVG/1.1/DTD/svg11.dtd">
<svg version="1.1" id="Layer_1" xmlns="http://www.w3.org/2000/svg" xmlns:xlink="http://www.w3.org/1999/xlink" x="0px" y="0px"
	 width="300px" height="200px" viewBox="0 0 300 200" enable-background="new 0 0 300 200" xml:space="preserve">
<g>
	<path fill="#E2E2E2" d="M298.973,93.951c-0.729-2.096-1.786-4.146-3.28-6.242c-1.495-2.152-3.341-4.203-5.623-6.27
		c-2.402-2.195-5.127-4.261-8.351-6.327c-3.281-2.109-6.826-4.072-10.843-5.991c-4.043-1.92-8.345-3.707-13.095-5.448
		c-9.228-3.341-19.16-6.125-30.407-8.511c-5.685-1.202-11.633-2.287-17.694-3.209c-4.484-0.688-9.112-1.302-13.715-1.83
		c-6.006-0.688-12.128-1.23-18.191-1.64c-5.888-0.383-12.012-0.659-18.223-0.792c-3.22-0.072-6.475-0.103-9.668-0.103
		c-2.856,0-5.728,0.017-8.568,0.075c-12.233,0.25-24.492,1.04-36.389,2.358c-14.545,1.625-27.743,3.91-40.369,6.987
		c-5.683,1.377-10.854,2.84-15.806,4.437c-2.521,0.82-5.011,1.672-7.369,2.549c-2.313,0.85-4.423,1.684-6.473,2.535
		c-4.189,1.757-7.97,3.589-11.573,5.581c-1.772,0.98-3.471,1.991-5.053,3.002c-3.181,2.038-5.92,4.117-8.351,6.33
		c-2.271,2.066-4.115,4.129-5.626,6.268c-1.492,2.097-2.549,4.147-3.267,6.242C0.353,95.958,0,97.993,0,100
		c0,1.993,0.353,4.016,1.039,6.034c0.718,2.109,1.775,4.159,3.267,6.243c1.523,2.165,3.369,4.217,5.626,6.269
		c2.416,2.197,5.143,4.276,8.351,6.328c3.308,2.137,6.854,4.1,10.854,6.003c4.043,1.934,8.333,3.695,13.108,5.424
		c9.215,3.367,19.16,6.15,30.381,8.522c5.684,1.204,11.632,2.288,17.697,3.224c4.453,0.675,9.081,1.289,13.726,1.816
		c6.034,0.701,12.143,1.232,18.179,1.641c5.888,0.408,12.024,0.672,18.222,0.793c3.193,0.085,6.431,0.116,9.609,0.116
		c2.87,0,5.772-0.03,8.639-0.088c12.248-0.237,24.494-1.028,36.391-2.347c14.531-1.637,27.743-3.896,40.368-6.998
		c5.628-1.352,10.811-2.815,15.794-4.427c2.487-0.792,4.951-1.642,7.381-2.548c2.286-0.849,4.396-1.671,6.473-2.549
		c4.106-1.728,8.027-3.603,11.572-5.566c1.733-0.968,3.433-1.99,5.042-2.99c3.195-2.076,5.92-4.131,8.351-6.354
		c2.282-2.054,4.128-4.104,5.65-6.269c1.467-2.109,2.524-4.134,3.253-6.241c0.676-1.995,1.027-4.043,1.027-6.036
		C300,97.993,299.648,95.957,298.973,93.951 M296.018,104.892c-0.648,1.936-1.67,3.723-2.815,5.363
		c-1.521,2.137-3.279,4.015-5.155,5.74c-2.489,2.257-5.158,4.221-7.939,6.008c-1.61,1.024-3.223,1.989-4.866,2.898
		c-3.662,2.022-7.441,3.812-11.304,5.448c-2.082,0.879-4.193,1.699-6.33,2.465c-2.401,0.904-4.832,1.727-7.264,2.518
		c-5.131,1.669-10.345,3.104-15.588,4.367c-13.183,3.223-26.545,5.42-39.991,6.913c-12.01,1.347-24.079,2.109-36.124,2.345
		c-6.055,0.144-12.083,0.117-18.132-0.003c-6.021-0.146-12.07-0.408-18.078-0.817c-6.034-0.384-12.041-0.938-18.046-1.612
		c-4.555-0.501-9.097-1.115-13.622-1.816c-5.861-0.882-11.718-1.937-17.534-3.166c-10.138-2.166-20.186-4.835-29.973-8.408
		c-4.349-1.581-8.642-3.337-12.831-5.332c-3.604-1.726-7.133-3.631-10.518-5.8c-2.783-1.787-5.478-3.75-7.939-6.005
		c-1.903-1.728-3.661-3.605-5.157-5.742c-1.17-1.641-2.168-3.428-2.827-5.363c-0.541-1.579-0.85-3.226-0.85-4.892
		c0-1.67,0.309-3.326,0.85-4.893c0.659-1.947,1.657-3.734,2.827-5.375c1.496-2.125,3.254-4.014,5.157-5.729
		c2.462-2.256,5.157-4.233,7.925-6.019c1.61-1.013,3.223-1.979,4.877-2.887c3.676-2.035,7.456-3.823,11.293-5.434
		c2.096-0.879,4.218-1.713,6.329-2.49c2.416-0.894,4.833-1.729,7.265-2.519c5.156-1.657,10.357-3.092,15.587-4.379
		c13.182-3.208,26.557-5.407,40.003-6.901c12.011-1.333,24.054-2.108,36.137-2.344c6.022-0.13,12.07-0.116,18.105,0.015
		c6.034,0.133,12.071,0.396,18.079,0.792c6.034,0.409,12.041,0.951,18.046,1.639c4.542,0.5,9.083,1.114,13.623,1.802
		c5.886,0.895,11.718,1.949,17.547,3.18c10.136,2.152,20.186,4.847,29.973,8.407c4.336,1.581,8.639,3.324,12.83,5.318
		c3.602,1.727,7.122,3.631,10.519,5.801c2.781,1.787,5.45,3.763,7.939,6.006c1.876,1.727,3.635,3.617,5.154,5.742
		c1.146,1.641,2.168,3.428,2.816,5.375c0.527,1.567,0.847,3.223,0.847,4.894C296.864,101.666,296.545,103.312,296.018,104.892"/>
	<path fill="#181716" d="M296.016,95.107c-0.646-1.947-1.668-3.734-2.815-5.376c-1.494-2.125-3.276-4.014-5.155-5.729
		c-2.462-2.255-5.157-4.232-7.938-6.005c-3.397-2.183-6.917-4.087-10.519-5.814c-4.189-1.993-8.495-3.75-12.83-5.318
		c-9.788-3.56-19.837-6.254-29.973-8.407c-5.829-1.23-11.687-2.285-17.547-3.18c-4.54-0.688-9.056-1.289-13.624-1.815
		c-6.004-0.675-12.011-1.217-18.046-1.612c-6.007-0.41-12.043-0.659-18.077-0.792c-6.041-0.145-12.084-0.16-18.12-0.029
		c-12.07,0.235-24.126,1.01-36.124,2.345c-13.446,1.48-26.821,3.691-40.003,6.9c-5.232,1.288-10.445,2.724-15.587,4.379
		c-2.431,0.791-4.849,1.626-7.265,2.519c-2.111,0.791-4.234,1.611-6.342,2.491c-3.838,1.61-7.604,3.398-11.28,5.435
		c-1.641,0.909-3.267,1.875-4.865,2.886c-2.781,1.787-5.463,3.764-7.939,6.019c-1.888,1.715-3.661,3.604-5.168,5.729
		c-1.157,1.642-2.155,3.429-2.814,5.376c-0.541,1.567-0.85,3.222-0.85,4.893c0,1.666,0.309,3.312,0.85,4.892
		c0.659,1.937,1.657,3.723,2.827,5.363c1.495,2.136,3.268,4.015,5.156,5.741c2.477,2.256,5.158,4.219,7.939,6.005
		c3.386,2.171,6.915,4.075,10.519,5.802c4.189,1.993,8.481,3.75,12.818,5.331c9.799,3.573,19.848,6.269,29.986,8.408
		c5.815,1.229,11.66,2.285,17.534,3.167c4.526,0.699,9.067,1.289,13.622,1.814c6.006,0.675,12.012,1.23,18.033,1.64
		c6.021,0.383,12.069,0.646,18.104,0.791c6.036,0.12,12.064,0.146,18.119,0.002c12.045-0.235,24.114-0.998,36.124-2.344
		c13.421-1.494,26.809-3.691,39.991-6.888c5.243-1.286,10.457-2.724,15.588-4.393c2.432-0.789,4.862-1.613,7.265-2.492
		c2.136-0.816,4.247-1.611,6.329-2.516c3.862-1.611,7.617-3.399,11.304-5.423c1.644-0.909,3.256-1.875,4.866-2.898
		c2.78-1.788,5.476-3.752,7.938-6.007c1.879-1.727,3.661-3.604,5.157-5.74c1.146-1.642,2.167-3.43,2.813-5.364
		c0.554-1.579,0.849-3.226,0.849-4.892C296.864,98.33,296.569,96.661,296.016,95.107 M150,139.199c-2.255,0-4.482-0.028-6.694-0.059
		c-0.731-0.002-1.449-0.057-2.153-0.059c-1.494-0.03-2.988-0.061-4.467-0.118c-0.822-0.028-1.655-0.059-2.477-0.114
		c-1.361-0.033-2.709-0.117-4.043-0.176c-0.863-0.033-1.685-0.09-2.533-0.146c-1.317-0.062-2.623-0.148-3.926-0.237
		c-0.821-0.059-1.641-0.118-2.46-0.177c-1.318-0.113-2.623-0.205-3.927-0.321c-0.762-0.087-1.524-0.146-2.286-0.206
		c-1.363-0.145-2.724-0.29-4.058-0.41c-0.687-0.086-1.347-0.146-2.02-0.231c-1.479-0.175-2.931-0.352-4.395-0.53
		c-0.512-0.059-1.025-0.117-1.524-0.202c-1.816-0.235-3.604-0.472-5.376-0.761c-0.131-0.003-0.263-0.03-0.395-0.033
		c-3.97-0.613-7.823-1.287-11.542-2.02c-0.002,0-0.016-0.001-0.029-0.001c-1.802-0.353-3.56-0.731-5.304-1.111
		c-0.219-0.058-0.438-0.116-0.646-0.147c-1.537-0.351-3.044-0.701-4.524-1.056c-0.266-0.06-0.543-0.146-0.821-0.205
		c-1.408-0.352-2.8-0.729-4.174-1.085c-0.278-0.085-0.543-0.172-0.82-0.233c-1.363-0.38-2.696-0.762-4.001-1.171
		c-0.234-0.06-0.469-0.146-0.702-0.205c-1.376-0.438-2.697-0.851-4.013-1.291c-0.147-0.057-0.294-0.114-0.44-0.172
		c-1.449-0.473-2.856-0.996-4.218-1.496H43.756c-1.613,0-3.15-0.793-4.088-2.139c-0.923-1.347-1.144-3.047-0.585-4.571l0.498-1.349
		c-0.265-0.176-0.513-0.352-0.777-0.553c-0.497-0.324-0.98-0.674-1.435-0.998c-0.293-0.206-0.572-0.438-0.85-0.645
		c-0.512-0.381-0.981-0.789-1.451-1.172c-0.205-0.176-0.424-0.352-0.628-0.528c-0.513-0.466-0.983-0.908-1.45-1.374
		c-0.163-0.177-0.337-0.353-0.5-0.527c-0.454-0.469-0.892-0.94-1.289-1.438c-0.116-0.146-0.205-0.266-0.322-0.411
		c-0.366-0.47-0.718-0.965-1.04-1.436c-0.059-0.089-0.118-0.177-0.19-0.291c-0.337-0.528-0.63-1.057-0.894-1.611
		c-0.059-0.117-0.131-0.234-0.177-0.351c-0.263-0.557-0.482-1.113-0.658-1.645c-0.044-0.143-0.074-0.233-0.117-0.377
		c-0.162-0.559-0.308-1.117-0.396-1.702c-0.027-0.087-0.029-0.178-0.044-0.266c-0.088-0.613-0.146-1.228-0.146-1.843
		c0-21.65,54.975-39.2,122.783-39.2c2.228,0,4.448,0.016,6.649,0.059c0.702,0.014,1.405,0.03,2.108,0.044
		c1.495,0.043,2.988,0.073,4.454,0.117c0.794,0.03,1.611,0.073,2.404,0.102c1.375,0.06,2.725,0.117,4.073,0.19
		c0.819,0.043,1.638,0.088,2.432,0.133c1.346,0.073,2.691,0.16,3.984,0.248c0.789,0.059,1.579,0.118,2.343,0.176
		c1.347,0.102,2.667,0.206,4.011,0.323c0.707,0.059,1.438,0.132,2.168,0.19c1.377,0.132,2.729,0.277,4.104,0.411
		c0.643,0.073,1.262,0.145,1.903,0.218c1.466,0.161,2.903,0.324,4.364,0.514c0.5,0.059,0.999,0.131,1.497,0.19
		c1.64,0.219,3.253,0.439,4.861,0.687c0.292,0.03,0.585,0.074,0.853,0.118c13.74,2.066,26.073,4.921,36.445,8.379
		c0.026,0.001,0.027,0.001,0.027,0.001c1.493,0.497,2.931,1.01,4.336,1.523h13.214c1.64,0,3.164,0.805,4.1,2.138
		c0.588,0.85,0.907,1.846,0.907,2.856c0,0.573-0.114,1.171-0.319,1.729l-0.614,1.626c0.349,0.22,0.671,0.44,0.993,0.66
		c0.41,0.278,0.793,0.569,1.2,0.848c0.411,0.294,0.794,0.602,1.2,0.909c0.384,0.307,0.766,0.615,1.143,0.923
		c0.239,0.219,0.501,0.425,0.735,0.631c0.471,0.438,0.938,0.863,1.376,1.302c0.203,0.191,0.384,0.396,0.587,0.588
		c0.437,0.467,0.847,0.922,1.228,1.391c0.122,0.161,0.264,0.323,0.384,0.498c0.353,0.454,0.676,0.909,0.995,1.376
		c0.088,0.119,0.174,0.25,0.262,0.382c0.297,0.497,0.586,0.996,0.824,1.508c0.059,0.118,0.143,0.249,0.201,0.368
		c0.239,0.555,0.469,1.098,0.646,1.641c0.032,0.13,0.088,0.249,0.119,0.379c0.174,0.559,0.319,1.129,0.408,1.701
		c0.004,0.101,0.028,0.188,0.032,0.278c0.088,0.614,0.146,1.23,0.146,1.845C272.783,121.649,217.821,139.199,150,139.199"/>
	<path fill="#FFFFFF" d="M272.607,97.877c-0.115-0.572-0.236-1.143-0.41-1.701c-0.031-0.13-0.086-0.249-0.119-0.379
		c-0.177-0.543-0.407-1.086-0.646-1.641c-0.059-0.119-0.143-0.25-0.202-0.368c-0.237-0.512-0.526-1.011-0.823-1.508
		c-0.086-0.132-0.174-0.264-0.262-0.382c-0.295-0.468-0.643-0.922-0.995-1.376c-0.145-0.174-0.262-0.336-0.382-0.498
		c-0.383-0.468-0.793-0.924-1.229-1.391c-0.203-0.191-0.384-0.396-0.587-0.588c-0.438-0.438-0.905-0.864-1.376-1.302
		c-0.234-0.206-0.496-0.412-0.735-0.631c-0.377-0.308-0.759-0.616-1.143-0.923c-0.406-0.307-0.789-0.615-1.2-0.909
		c-0.407-0.279-0.79-0.57-1.2-0.848c-0.322-0.22-0.645-0.44-0.993-0.66l0.614-1.626c0.205-0.557,0.319-1.156,0.319-1.729
		c0-1.01-0.319-2.006-0.906-2.856c-0.937-1.333-2.461-2.138-4.101-2.138h-13.214c-1.405-0.514-2.843-1.026-4.336-1.523
		c0,0-0.002,0-0.027-0.001c-10.372-3.458-22.707-6.313-36.445-8.379c-0.268-0.044-0.561-0.087-0.853-0.118
		c-1.608-0.248-3.222-0.468-4.861-0.687c-0.499-0.059-0.997-0.132-1.497-0.19c-1.436-0.19-2.898-0.353-4.364-0.514
		c-0.642-0.074-1.261-0.146-1.904-0.218c-1.349-0.133-2.751-0.279-4.128-0.411c-0.705-0.059-1.436-0.131-2.168-0.19
		c-1.318-0.117-2.639-0.221-3.985-0.323c-0.764-0.058-1.554-0.117-2.344-0.176c-1.317-0.088-2.638-0.175-3.983-0.248
		c-0.794-0.045-1.612-0.09-2.432-0.133c-1.349-0.073-2.698-0.13-4.073-0.19c-0.793-0.029-1.585-0.072-2.404-0.102
		c-1.466-0.044-2.959-0.074-4.454-0.117c-0.704-0.014-1.405-0.03-2.108-0.044c-2.201-0.043-4.423-0.059-6.649-0.059
		C82.192,60.8,27.217,78.35,27.217,100c0,0.615,0.058,1.229,0.147,1.843c0.015,0.088,0.016,0.179,0.043,0.266
		c0.088,0.585,0.234,1.144,0.396,1.702c0.043,0.144,0.074,0.234,0.117,0.377c0.189,0.531,0.396,1.088,0.658,1.645
		c0.059,0.116,0.118,0.233,0.177,0.351c0.264,0.555,0.557,1.083,0.907,1.611c0.046,0.114,0.118,0.202,0.177,0.291
		c0.323,0.471,0.673,0.966,1.04,1.436c0.104,0.146,0.206,0.266,0.322,0.411c0.397,0.497,0.835,0.969,1.289,1.438
		c0.163,0.175,0.324,0.351,0.5,0.527c0.467,0.466,0.938,0.908,1.449,1.374c0.205,0.177,0.424,0.353,0.63,0.528
		c0.468,0.383,0.938,0.791,1.45,1.172c0.278,0.207,0.557,0.438,0.851,0.645c0.454,0.324,0.937,0.674,1.434,0.998
		c0.263,0.201,0.513,0.377,0.776,0.553l-0.498,1.349c-0.557,1.524-0.337,3.225,0.587,4.571c0.937,1.346,2.474,2.139,4.1,2.139
		h12.261c1.363,0.5,2.77,1.023,4.219,1.496c0.146,0.058,0.293,0.115,0.44,0.172c1.303,0.44,2.65,0.854,4.011,1.291
		c0.235,0.06,0.469,0.146,0.704,0.205c1.305,0.409,2.638,0.791,4.001,1.171c0.277,0.062,0.542,0.148,0.82,0.233
		c1.375,0.355,2.766,0.733,4.174,1.085c0.277,0.06,0.555,0.146,0.821,0.205c1.479,0.354,3,0.705,4.524,1.056
		c0.208,0.031,0.425,0.09,0.646,0.147c1.743,0.38,3.501,0.759,5.304,1.111c0.013,0,0.027,0.001,0.028,0.001
		c3.721,0.732,7.573,1.406,11.543,2.02c0.131,0.003,0.264,0.03,0.395,0.033c1.772,0.289,3.56,0.525,5.376,0.761
		c0.499,0.085,1.012,0.144,1.523,0.202c1.452,0.179,2.916,0.355,4.396,0.53c0.673,0.085,1.333,0.146,2.02,0.231
		c1.334,0.12,2.695,0.266,4.058,0.41c0.761,0.061,1.523,0.119,2.286,0.206c1.304,0.116,2.608,0.207,3.927,0.321
		c0.819,0.059,1.626,0.118,2.46,0.177c1.303,0.089,2.607,0.175,3.926,0.237c0.835,0.057,1.67,0.113,2.533,0.146
		c1.333,0.059,2.682,0.143,4.044,0.176c0.821,0.056,1.654,0.086,2.476,0.114c1.479,0.058,2.973,0.088,4.466,0.118
		c0.705,0.002,1.423,0.057,2.154,0.059c2.226,0.03,4.439,0.059,6.694,0.059c67.821,0,122.783-17.55,122.783-39.199
		c0-0.615-0.058-1.231-0.145-1.845C272.635,98.065,272.609,97.978,272.607,97.877"/>
	<path fill="#181716" d="M119.678,78.305c-0.368-0.528-0.953-0.835-1.597-0.835H96.666c-0.967,0-1.494,0.367-1.831,1.275
		l-5.772,15.674c-0.262,0.689-0.586,0.923-1.318,0.923h-9.301c-0.469,0-0.893-0.22-1.156-0.601c-0.265-0.381-0.324-0.863-0.163-1.29
		l4.922-13.359c0.219-0.6,0.132-1.26-0.233-1.787c-0.367-0.528-0.953-0.835-1.598-0.835H58.8c-0.955,0-1.494,0.367-1.831,1.275
		l-15.03,40.823c-0.219,0.587-0.132,1.261,0.234,1.787c0.352,0.502,0.953,0.822,1.583,0.822h21.43c0.953,0,1.48-0.38,1.817-1.261
		l5.066-13.739c0.25-0.701,0.587-0.936,1.318-0.936h9.302c0.456,0,0.88,0.231,1.145,0.614c0.276,0.381,0.335,0.85,0.174,1.289
		l-4.204,11.423c-0.219,0.587-0.132,1.261,0.222,1.787c0.366,0.502,0.965,0.822,1.609,0.822h20.143c2.3,0,3.164-1.405,3.472-2.229
		l14.662-39.857C120.132,79.492,120.043,78.832,119.678,78.305"/>
	<path fill="#181716" d="M188.438,78.263c-0.354-0.499-0.938-0.793-1.555-0.793h-22.031c-0.967,0-1.494,0.367-1.844,1.275
		l-12.509,33.97c-0.263,0.702-0.587,0.936-1.333,0.936h-7.97c-0.455,0-0.892-0.233-1.156-0.614
		c-0.265-0.381-0.323-0.851-0.163-1.289l3.473-9.436c0.232-0.611,0.132-1.28-0.221-1.798c-0.366-0.514-0.966-0.835-1.597-0.835
		h-22.044c-0.954,0-1.494,0.366-1.818,1.282l-6.855,18.609c-0.22,0.586-0.132,1.261,0.221,1.786
		c0.366,0.501,0.966,0.822,1.597,0.822l57.525,0.028c2.139,0,3.688-1.229,4.566-3.632l5.101-13.857
		c3.045-8.116,5.915-15.791,8.877-24.638C188.907,79.463,188.817,78.789,188.438,78.263"/>
	<path fill="#181716" d="M257.841,78.305c-0.379-0.528-0.965-0.835-1.609-0.835h-57.511c-0.996,0-2.431,0.807-2.899,1.949
		c-3.548,8.774-6.68,17.579-9.696,26.116l-5.039,14.033c-0.206,0.587-0.118,1.261,0.26,1.787c0.354,0.527,0.939,0.822,1.585,0.822
		h57.098c1.556,0,2.901-0.969,3.284-1.933c1.023-2.463,1.784-4.632,2.575-6.942l1.438-4.105c0.233-0.611,0.146-1.285-0.209-1.786
		c-0.378-0.528-0.963-0.847-1.607-0.847h-21.537c-0.966,0-1.493,0.379-1.842,1.287l-1.935,5.271
		c-0.236,0.676-0.587,0.909-1.318,0.909h-7.796c-0.469,0-0.905-0.231-1.169-0.612s-0.325-0.851-0.175-1.29l9.346-25.358
		c0.264-0.701,0.611-0.936,1.345-0.936h7.794c0.469,0,0.88,0.22,1.17,0.614c0.265,0.381,0.323,0.851,0.149,1.29l-1.936,5.098
		c-0.233,0.601-0.146,1.259,0.233,1.787c0.354,0.514,0.941,0.835,1.585,0.835h21.56c0.941,0,1.469-0.38,1.819-1.276l5.271-14.091
		C258.282,79.492,258.194,78.832,257.841,78.305"/>
	<path fill="#181716" d="M190.4,131.553l-0.057-0.09l1.902-0.436l0.059,0.087c0.324,0.614,1.027,0.909,2.225,0.937
		c0.674,0,1.172-0.115,1.469-0.291c0.348-0.205,0.496-0.384,0.497-0.615c0-0.03,0.001-0.032,0-0.062
		c-0.003-0.085-0.058-0.146-0.118-0.205c-0.115-0.113-0.233-0.174-0.409-0.231c-0.176-0.032-0.557-0.119-1.114-0.233
		c-0.793-0.146-1.406-0.267-1.814-0.412c-0.41-0.119-0.734-0.323-0.996-0.588c-0.178-0.203-0.296-0.437-0.352-0.699
		c-0.002-0.088-0.003-0.176-0.002-0.266c0.03-0.614,0.412-1.112,1.115-1.492c0.703-0.355,1.641-0.558,2.812-0.558
		c1.726,0,2.93,0.468,3.571,1.407l-0.117,0.055l0.117-0.055l0.061,0.115l-1.906,0.44l-0.058-0.088
		c-0.294-0.47-0.849-0.705-1.757-0.706c-0.555,0-0.966,0.062-1.261,0.209c-0.294,0.173-0.438,0.35-0.44,0.555
		c-0.025,0.029,0,0.058,0,0.086c0.004,0.092,0.062,0.18,0.234,0.267c0.15,0.114,0.473,0.205,0.967,0.293l1.377,0.262
		c0.384,0.061,0.791,0.178,1.145,0.351c0.38,0.15,0.646,0.354,0.822,0.616c0.143,0.177,0.204,0.354,0.234,0.558
		c0.026,0.061,0.026,0.147,0.026,0.233c-0.029,0.614-0.438,1.116-1.143,1.555c-0.732,0.438-1.759,0.646-3.077,0.646h-0.055
		C192.334,133.195,190.985,132.665,190.4,131.553"/>
	<polygon fill="#181716" points="103.111,126.6 105.631,126.6 104.78,128.918 108.136,128.918 108.999,126.6 111.518,126.6 
		109.146,133.017 106.64,133.017 107.594,130.38 104.238,130.38 103.272,133.017 100.766,133.017 	"/>
	<polygon fill="#181716" points="118.711,126.6 126.43,126.6 125.889,128.035 120.702,128.035 120.323,129.061 125.126,129.061 
		124.657,130.352 119.854,130.352 119.413,131.581 124.657,131.581 124.115,133.017 116.381,133.017 	"/>
	<polygon fill="#181716" points="133.593,126.6 136.112,126.6 134.281,131.581 138.794,131.581 138.252,133.017 131.236,133.017 	
		"/>
	<polygon fill="#181716" points="146.411,126.6 149.869,126.6 150.088,131.172 150.118,131.172 153.692,126.6 157.175,126.6 
		154.805,133.017 152.423,133.017 154.508,127.918 154.479,127.918 150.382,133.017 148.461,133.017 148.155,127.918 
		148.139,127.918 146.426,133.017 144.039,133.017 	"/>
	<polygon fill="#181716" points="164.269,126.6 172,126.6 171.446,128.035 166.259,128.035 165.88,129.061 170.684,129.061 
		170.214,130.352 165.41,130.352 164.97,131.581 170.214,131.581 169.66,133.017 161.925,133.017 	"/>
	<polygon fill="#181716" points="185.802,128.035 182.96,128.035 181.112,133.017 178.594,133.017 180.44,128.035 177.598,128.035 
		178.098,126.6 186.301,126.6 	"/>
</g>
</svg>
