<?xml version="1.0" encoding="utf-8"?>
<!-- Generator: Adobe Illustrator 16.0.0, SVG Export Plug-In . SVG Version: 6.00 Build 0)  -->
<!DOCTYPE svg PUBLIC "-//W3C//DTD SVG 1.1//EN" "http://www.w3.org/Graphics/SVG/1.1/DTD/svg11.dtd">
<svg version="1.1" id="Layer_1" xmlns="http://www.w3.org/2000/svg" xmlns:xlink="http://www.w3.org/1999/xlink" x="0px" y="0px"
	 width="300px" height="200px" viewBox="0 0 300 200" enable-background="new 0 0 300 200" xml:space="preserve">
<rect y="62.853" width="300" height="74.295"/>
<path fill="#FFFFFF" d="M266.868,91.38h-28.346l-27.165,25.949h-15.926l27.165-25.949h-29.132l9.101-8.708l74.003,0.001
	L266.868,91.38z M139.476,91.38l-4.472,4.333h31.504c2.249,0,4.407-0.336,6.856,0.681c3.343,1.39,4.069,4.587,1.341,7.257
	c-3,2.936-5.779,5.559-9.635,9.166c-2.072,1.938-6.648,4.49-14.146,4.49l-54.19,0.002l9.101-8.667h48.312l4.481-4.265l-32.567-0.002
	c-9.458,0-10.937-4.646-7.301-8.092c3.002-2.846,5.332-5.086,9.633-9.251c1.766-1.709,4.973-3.822,10.659-4.361h57.913l-9.102,8.708
	H139.476z M102.174,107.141l-5.576,5.309l-5.172-4.543c1.637-0.002,2.929-0.002,3.822-0.002
	C97.755,107.904,100.072,107.647,102.174,107.141 M115.744,105.031h-8.185c1.199-0.693,2.313-1.521,3.364-2.498
	c0.846-0.786,1.647-1.534,2.413-2.249c0.046,0.688,0.199,1.369,0.463,2.03C114.114,103.106,114.691,104.1,115.744,105.031
	 M80.756,117.329l-14.797-12.987l-6.213,0.038l9.018-8.667h28.513l4.535-4.312H68.08l-27.142,25.928H25.012l36.281-34.657h49.359
	c2.241,0,5.555,0.104,6.946,1.088c2.597,1.644,3.11,4.371,0.896,6.586c-2.702,2.703-6.107,5.894-10.031,9.542
	c-2.082,1.934-5.716,4.405-13.215,4.405c-2.4,0-7.465,0.008-13.396,0.019l14.829,13.018H80.756z M205.965,79.059h-67.083
	l-0.17,0.017c-5.364,0.51-9.682,2.312-12.831,5.362c-0.882,0.853-1.676,1.621-2.405,2.326c-0.005-0.062-0.01-0.125-0.019-0.188
	c-0.256-2.321-1.625-4.386-3.856-5.824c-1.757-1.201-4.364-1.693-8.949-1.693H59.843L16,120.941h26.387l13.535-12.932l8.685-0.048
	l14.788,12.979h26.878l-0.024-0.021l44.675-0.002c9.725,0,14.86-3.82,16.616-5.464c3.974-3.718,6.695-6.289,9.691-9.221
	c2.164-2.119,3.125-4.8,2.63-7.358c-0.283-1.474-1.024-2.803-2.132-3.884h6.734v0.001l29.119-0.001l-27.163,25.949h26.386
	l27.165-25.949h28.28L286,79.06L205.965,79.059z"/>
</svg>
