<?xml version="1.0" encoding="utf-8"?>
<!-- Generator: Adobe Illustrator 16.0.0, SVG Export Plug-In . SVG Version: 6.00 Build 0)  -->
<!DOCTYPE svg PUBLIC "-//W3C//DTD SVG 1.1//EN" "http://www.w3.org/Graphics/SVG/1.1/DTD/svg11.dtd">
<svg version="1.1" id="Layer_1" xmlns="http://www.w3.org/2000/svg" xmlns:xlink="http://www.w3.org/1999/xlink" x="0px" y="0px"
	 width="300px" height="200px" viewBox="0 0 300 200" enable-background="new 0 0 300 200" xml:space="preserve">
<g id="Laag_1">
	<path fill="#FFFFFF" d="M150,31.624c-82.789,0-149.952,30.573-149.952,68.328c0,37.754,67.163,68.328,149.952,68.328
		c80.167,0,149.951-30.088,149.951-68.328C300.049,63.361,242.397,31.624,150,31.624L150,31.624z"/>
	<g>
		<g>
			<polygon fill="#003E7E" points="108.46,137.706 103.316,137.706 103.316,142.268 99.337,142.268 99.337,131.494 103.316,131.494 
				103.316,135.57 108.46,135.57 108.46,131.494 112.537,131.494 112.537,142.268 108.46,142.268 			"/>
			<polygon fill="#003E7E" points="117.583,142.268 117.583,131.494 128.357,131.494 128.357,133.63 121.66,133.63 121.66,135.57 
				127.192,135.57 127.192,137.706 121.66,137.706 121.66,140.035 128.357,140.035 128.357,142.268 			"/>
			<polygon fill="#003E7E" points="133.113,142.268 133.113,131.494 137.189,131.494 137.189,140.035 143.886,140.035 
				143.886,142.268 			"/>
			<polygon fill="#003E7E" points="148.447,142.268 148.447,131.494 154.271,131.494 156.988,138.58 157.086,138.58 
				159.706,131.494 165.627,131.494 165.627,142.268 162.035,142.268 162.035,134.504 162.035,134.504 159.123,142.268 
				154.95,142.268 152.039,134.504 152.039,134.504 152.039,142.268 			"/>
			<polygon fill="#003E7E" points="170.771,142.268 170.771,131.494 181.543,131.494 181.543,133.63 174.847,133.63 174.847,135.57 
				180.379,135.57 180.379,137.706 174.847,137.706 174.847,140.035 181.543,140.035 181.543,142.268 			"/>
			<polygon fill="#003E7E" points="189.502,142.268 189.502,133.824 185.135,133.824 185.135,131.494 197.85,131.494 
				197.85,133.824 193.481,133.824 193.481,142.268 			"/>
			<path fill="#003E7E" d="M199.984,140.715c0-2.426,1.941-4.174,4.27-4.174c2.232,0,4.271,1.748,4.271,4.174
				c0,2.427-1.941,4.174-4.271,4.174C201.926,144.889,199.984,143.142,199.984,140.715L199.984,140.715z M204.254,144.111
				c1.845,0,3.301-1.455,3.301-3.396s-1.456-3.396-3.301-3.396c-1.844,0-3.299,1.455-3.299,3.396
				C200.857,142.656,202.313,144.111,204.254,144.111L204.254,144.111z M203.381,143.045h-0.776v-4.756h1.845
				c1.164,0,1.746,0.388,1.746,1.358c0,0.874-0.484,1.262-1.262,1.262l1.359,2.136h-0.873l-1.262-2.039h-0.777V143.045
				L203.381,143.045z M204.254,140.326c0.583,0,1.068-0.097,1.068-0.775c0-0.583-0.582-0.68-1.068-0.68h-0.97v1.455H204.254
				L204.254,140.326z"/>
			<path fill="#003E7E" d="M234.439,68.991c0-4.562,3.785-8.347,8.346-8.347c4.659,0,8.348,3.688,8.348,8.347
				c0,4.562-3.785,8.347-8.348,8.347C238.225,77.337,234.439,73.649,234.439,68.991L234.439,68.991z"/>
			<path fill="#003E7E" d="M149.903,38.903c-78.227,0-141.702,27.467-141.702,61.339S71.676,161.582,150,161.582
				c75.704,0,141.798-27.078,141.798-61.339C291.702,67.341,237.351,38.903,149.903,38.903L149.903,38.903z M149.903,155.467
				c-44.84,0-81.43-12.229-101.423-28.34c-0.68-0.484-1.941-0.971-3.203-0.582c-5.047,1.553-17.179-0.098-19.023-2.33
				c-0.388-0.484-0.485-1.94-0.194-2.426c1.262-2.135,5.241-7.765,6.6-9.317c0.776-0.874,0.874-2.038,0.485-3.009
				c-1.068-2.717-1.359-5.629-1.359-8.25c0-27.175,52.896-54.448,118.02-54.448c32.32,0,61.145,6.115,82.498,15.917
				c0.485,0.194,1.845,0.097,2.038-0.194c1.941-2.232,5.145-3.882,8.443-3.882c5.921,0,10.677,4.756,10.677,10.579
				c0,1.553-0.291,2.912-0.874,4.271c-0.097,0.292,0.098,1.65,0.389,1.941c9.317,7.764,14.656,16.402,14.656,25.914
				C267.633,131.106,214.931,155.467,149.903,155.467L149.903,155.467z"/>
			<path fill="#003E7E" d="M255.307,102.281c-2.232,2.426-8.639,6.309-8.639,6.309c-2.329,1.164-3.3-0.68-2.912-2.427
				c0.389-1.649,7.474-27.661,7.474-27.661h-20.091l-6.988,26.885c0,0-3.493,3.203-6.891,5.047
				c-3.494,1.844-3.979,0.193-3.591-1.553c0.388-1.65,7.958-30.379,7.958-30.379h-19.313l-0.583,2.232
				c-0.97-1.844-6.502-4.659-10.869-4.659c-4.368,0-8.057,2.621-9.803,3.979c-1.748,1.358-6.115,4.173-10.289,4.173
				c-4.173,0-9.607-6.018-9.607-6.018l-7.861,6.406l1.649-5.823h-19.508l-8.25,24.846c0,0-9.803,6.212-10.871,6.794
				c-1.165,0.582-2.329,0.582-1.941-1.553c0.388-2.039,14.364-55.71,14.364-55.71h-19.703
				c-25.234,29.408-43.869,54.254-54.934,55.322c-5.629,0.485-8.347,0.582-13.685-1.65c-0.971-0.388-1.553,0.292-1.553,0.292
				l-10.094,13.588c0,0-0.776,1.262,0.388,1.747c20.285,7.667,40.375-12.521,46.004-18.246h19.896c0,0-1.165,3.785-2.717,9.996
				c-1.747,7.182,3.3,10.773,9.415,10.773c8.444,0,22.032-10.871,22.032-10.871l-2.912,11.064h20.673l9.123-32.222
				c7.668,5.727,15.335,2.815,15.335,2.815c-1.165,1.65-3.785,10.87-3.785,14.849c0,3.98,3.979,13.977,15.141,13.977
				c11.064,0,15.724-6.988,15.724-6.988s-0.389,7.57,7.473,7.57s21.061-8.249,21.061-8.249s-0.388,8.056,8.057,8.056
				c14.363,0,24.166-15.918,26.398-20.285C257.635,101.311,256.082,101.407,255.307,102.281L255.307,102.281z M98.27,97.137H82.158
				l23.876-26.399L98.27,97.137L98.27,97.137z M199.596,90.925c0,0-1.067,4.853-3.105,11.938s-6.406,6.891-7.959,6.891
				s-5.338,0-5.338-7.376c0-9.123,9.414-17.761,13.297-17.761C200.373,84.52,200.081,88.402,199.596,90.925L199.596,90.925z"/>
		</g>
	</g>
</g>
</svg>
